<svg xmlns="http://www.w3.org/2000/svg" width="80.533" height="114.421" viewBox="0 0 80.533 114.421">
  <defs>
    <style>
      .cls-1 {
        opacity: 0.8;
      }

      .cls-2 {
        fill: #ff6089;
      }

      .cls-13, .cls-3 {
        fill: #919293;
        opacity: 0.7;
        mix-blend-mode: multiply;
        isolation: isolate;
      }

      .cls-4 {
        fill: #fdbe85;
      }

      .cls-5 {
        fill: #ffd5a3;
      }

      .cls-6 {
        fill: #9d3533;
      }

      .cls-7 {
        fill: #fff;
      }

      .cls-8 {
        fill: #7d4a2e;
      }

      .cls-9 {
        fill: #121010;
      }

      .cls-10 {
        opacity: 0.5;
      }

      .cls-11 {
        fill: #ff8c8c;
      }

      .cls-12 {
        fill: #e55d58;
      }

      .cls-13, .cls-14 {
        fill-rule: evenodd;
      }

      .cls-14 {
        fill: #ffeb36;
      }
    </style>
  </defs>
  <g id="Group_127" data-name="Group 127" class="cls-1" transform="translate(-19.602 -165.832) rotate(3)">
    <path id="Path_79" data-name="Path 79" class="cls-2" d="M102.047,294.8l-.327.144a60.034,60.034,0,0,1-48.186-.144h0l2.9-41.559H99.145Z" transform="translate(-5.647 -24.337)"/>
    <g id="Group_90" data-name="Group 90" transform="translate(32.729 163.59)">
      <g id="Group_83" data-name="Group 83" transform="translate(2.821 1.953)">
        <g id="Group_68" data-name="Group 68" transform="translate(0 42.567)">
          <path id="Path_80" data-name="Path 80" class="cls-2" d="M50.042,237.9c3.665-4.49,7.706-6.857,11.7-6.542.128-.213,6.131-.377,11.582-.48,5.45.142,11.453.348,11.579.562,3.992-.286,8.015,2.11,11.649,6.625,5.949,7.394,13.24,28.41,13.24,28.41S97.428,268.909,96.144,269c-2.326-4.1-3.179-11.187-5.533-18.419a92.161,92.161,0,0,1,.523,16.137s-8.472.335-17.943.628c-9.469-.36-17.938-.755-17.938-.755a92.194,92.194,0,0,1,.637-16.132c-1.487,5.894-3.309,14.292-5.664,18.379-1.283-.1-13.625-2.622-13.625-2.622S44.041,245.249,50.042,237.9Z" transform="translate(-36.602 -226.374)"/>
          <g id="Group_67" data-name="Group 67" transform="translate(27.949)">
            <path id="Path_81" data-name="Path 81" class="cls-3" d="M95.343,233.294l-3.059-.729s-10.005-16.4-16.725-1.845c-.266.576-.594,1.419-.594,1.419a11.9,11.9,0,0,0,9.977,6.11C91.475,238.694,95.343,233.294,95.343,233.294Z" transform="translate(-74.965 -224.697)"/>
          </g>
        </g>
        <g id="Group_82" data-name="Group 82" transform="translate(15.973)">
          <g id="Group_80" data-name="Group 80">
            <g id="Group_79" data-name="Group 79">
              <g id="Group_78" data-name="Group 78">
                <g id="Group_70" data-name="Group 70" transform="translate(0 27.45)">
                  <g id="Group_69" data-name="Group 69">
                    <path id="Path_82" data-name="Path 82" class="cls-4" d="M63.2,213.556l1.7.077.435-9.556-2.749-.125a3.884,3.884,0,0,0-3.656,5.6l.887,1.79A3.982,3.982,0,0,0,63.2,213.556Z" transform="translate(-58.527 -203.948)"/>
                    <path id="Path_83" data-name="Path 83" class="cls-4" d="M117.969,213.931l1.046-1.7a3.884,3.884,0,0,0-3.133-5.912l-2.748-.125-.434,9.556,1.7.077A3.98,3.98,0,0,0,117.969,213.931Z" transform="translate(-73.232 -204.557)"/>
                  </g>
                </g>
                <path id="Path_84" data-name="Path 84" class="cls-5" d="M101.936,201.975l.731-16.076a18.774,18.774,0,1,0-37.51-1.706l-.731,16.075a18.774,18.774,0,1,0,37.509,1.706Z" transform="translate(-60.123 -166.271)"/>
                <g id="Group_72" data-name="Group 72" transform="translate(10.29 24.064)">
                  <g id="Group_71" data-name="Group 71">
                    <path id="Path_85" data-name="Path 85" class="cls-6" d="M79.419,201.777a1.241,1.241,0,1,0,.043-2.474l-.9.053a8.8,8.8,0,0,0-5.911,2.786l.421-.149a8.789,8.789,0,0,1,3.754-.462Z" transform="translate(-72.651 -199.301)"/>
                    <path id="Path_86" data-name="Path 86" class="cls-6" d="M101.554,202.561a8.793,8.793,0,0,1,3.7.8l.406.186a8.794,8.794,0,0,0-5.635-3.311l-.89-.135a1.241,1.241,0,1,0-.182,2.468Z" transform="translate(-79.452 -199.514)"/>
                  </g>
                  <path id="Path_87" data-name="Path 87" class="cls-4" d="M90.76,219.778l.007,0a1.819,1.819,0,0,0,1.094-1.794c-.009-.063-.141-.171-.345-.3a5.226,5.226,0,0,0-5.293-.24c-.216.114-.358.21-.372.271a1.82,1.82,0,0,0,.927,1.885A4.833,4.833,0,0,0,90.76,219.778Z" transform="translate(-76.224 -204.06)"/>
                </g>
                <g id="Group_77" data-name="Group 77" transform="translate(11.314 27.94)">
                  <g id="Group_74" data-name="Group 74">
                    <path id="Path_88" data-name="Path 88" class="cls-7" d="M74.056,208.758s.229-3.971,4.023-3.8c3.513.16,3.6,4.407,3.6,4.407A7.062,7.062,0,0,1,74.056,208.758Z" transform="translate(-74.056 -204.711)"/>
                    <g id="Group_73" data-name="Group 73" transform="translate(1.272)">
                      <path id="Path_89" data-name="Path 89" class="cls-8" d="M81.214,207.451a2.708,2.708,0,1,0-2.827,2.582A2.707,2.707,0,0,0,81.214,207.451Z" transform="translate(-75.802 -204.621)"/>
                    </g>
                    <path id="Path_90" data-name="Path 90" class="cls-9" d="M80.221,207.97a1.121,1.121,0,1,0-1.171,1.069A1.121,1.121,0,0,0,80.221,207.97Z" transform="translate(-75.121 -205.212)"/>
                    <path id="Path_91" data-name="Path 91" class="cls-7" d="M81.655,206.76a.693.693,0,1,0-.723.661A.693.693,0,0,0,81.655,206.76Z" transform="translate(-75.743 -205.005)"/>
                  </g>
                  <g id="Group_76" data-name="Group 76" transform="translate(16.056 0.722)">
                    <path id="Path_92" data-name="Path 92" class="cls-7" d="M103.739,210.107s.132-3.976-3.662-4.148c-3.513-.16-3.983,4.062-3.983,4.062A7.063,7.063,0,0,0,103.739,210.107Z" transform="translate(-96.094 -205.705)"/>
                    <g id="Group_75" data-name="Group 75" transform="translate(1.096)">
                      <path id="Path_93" data-name="Path 93" class="cls-8" d="M103.01,208.442a2.707,2.707,0,1,0-2.827,2.582A2.707,2.707,0,0,0,103.01,208.442Z" transform="translate(-97.598 -205.612)"/>
                    </g>
                    <path id="Path_94" data-name="Path 94" class="cls-9" d="M102.017,208.961a1.121,1.121,0,1,0-1.171,1.07A1.122,1.122,0,0,0,102.017,208.961Z" transform="translate(-97.093 -206.203)"/>
                    <path id="Path_95" data-name="Path 95" class="cls-7" d="M103.451,207.751a.693.693,0,1,0-.723.661A.692.692,0,0,0,103.451,207.751Z" transform="translate(-97.715 -205.996)"/>
                  </g>
                </g>
              </g>
            </g>
            <path id="Path_96" data-name="Path 96" class="cls-4" d="M74.051,208.6a3.23,3.23,0,0,1-.007-.547,4.491,4.491,0,0,1,.323-1.429,3.914,3.914,0,0,1,.5-.882c.116-.141.245-.283.38-.423a4.284,4.284,0,0,1,.476-.365,3.592,3.592,0,0,1,1.159-.477,5.181,5.181,0,0,1,1.3-.1l.581.08c.221.063.445.125.655.2a3.524,3.524,0,0,1,1.736,1.631,4,4,0,0,1,.366.932,5.372,5.372,0,0,1,.19,1.445,3.646,3.646,0,0,1-.036.546s-.04-.2-.136-.522a8.5,8.5,0,0,0-.489-1.293,3.273,3.273,0,0,0-.207-.382,2.936,2.936,0,0,0-.246-.383,3.613,3.613,0,0,0-.644-.7,3.082,3.082,0,0,0-.4-.278c-.142-.081-.3-.134-.447-.212l-.454-.133-.578-.066c-.117-.007-.338,0-.5,0a3.242,3.242,0,0,0-.515.06,3.384,3.384,0,0,0-.939.313c-.146.068-.266.176-.4.252-.121.1-.24.2-.352.3a4.71,4.71,0,0,0-.546.685,6.259,6.259,0,0,0-.6,1.234C74.1,208.406,74.051,208.6,74.051,208.6Z" transform="translate(-62.737 -176.613)"/>
            <path id="Path_97" data-name="Path 97" class="cls-4" d="M103.737,209.946s-.029-.2-.116-.526a6.32,6.32,0,0,0-.483-1.283,4.827,4.827,0,0,0-.482-.731c-.1-.113-.212-.223-.323-.332-.131-.089-.24-.206-.38-.288a3.394,3.394,0,0,0-.906-.4,3.314,3.314,0,0,0-.509-.107c-.163-.013-.382-.042-.5-.045l-.582.012-.464.091c-.153.065-.315.1-.464.171a3.127,3.127,0,0,0-.423.24,3.64,3.64,0,0,0-.705.636,3.083,3.083,0,0,0-.28.36,3.267,3.267,0,0,0-.24.361,8.527,8.527,0,0,0-.6,1.244c-.125.317-.184.508-.184.508a3.785,3.785,0,0,1,.014-.546,5.359,5.359,0,0,1,.321-1.422,3.974,3.974,0,0,1,.45-.895,3.525,3.525,0,0,1,1.877-1.467c.216-.057.445-.1.671-.141l.585-.027a5.173,5.173,0,0,1,1.283.219,3.6,3.6,0,0,1,1.111.58,4.219,4.219,0,0,1,.442.407c.122.152.237.3.34.456a3.875,3.875,0,0,1,.417.924,4.506,4.506,0,0,1,.192,1.453A3.213,3.213,0,0,1,103.737,209.946Z" transform="translate(-68.723 -176.883)"/>
          </g>
          <g id="Group_81" data-name="Group 81" class="cls-10" transform="translate(7.845 35.283)">
            <path id="Path_98" data-name="Path 98" class="cls-11" d="M75.77,216.913c-.052,1.138-1.543,1.995-3.331,1.914s-3.2-1.07-3.144-2.208,1.543-1.995,3.331-1.914S75.822,215.775,75.77,216.913Z" transform="translate(-69.294 -214.7)"/>
            <path id="Path_99" data-name="Path 99" class="cls-11" d="M108.265,218.391c-.052,1.138-1.543,1.995-3.331,1.913s-3.2-1.07-3.144-2.208,1.543-1.995,3.331-1.913S108.317,217.252,108.265,218.391Z" transform="translate(-78.115 -215.101)"/>
          </g>
          <path id="Path_100" data-name="Path 100" class="cls-6" d="M79.9,175.715c-1.7-.019-3.366.022-4.931.061-1.742.044-3.2-.027-4.392,1.426a28.891,28.891,0,0,1-2.945,3.606c-.451.4-.933.774-1.425,1.143-.761,2.1-1.722,4.112-2.527,6.215-1.016,2.648-1.09,5.492-2.191,8.091.722,1.553,1.612,3.1,2.483,4.612a13.393,13.393,0,0,1,.283-1.69c.023.028.057.119.066.085.994-3.781,3.962-6.014,6.5-8.05,1.968-1.577,3.232-3.354,3.456-4.414h0c.012-.023.025-.044.036-.066a6.922,6.922,0,0,1-2.985,6.132,11.713,11.713,0,0,0,9.377-10.725C80.676,179.348,78.753,178.227,79.9,175.715Z" transform="translate(-59.332 -168.833)"/>
          <path id="Path_101" data-name="Path 101" class="cls-11" d="M87.929,224.7l-.45.107-.426-.179a3.988,3.988,0,0,0-1.413-.322,27.33,27.33,0,0,1-3.55-.514,5.381,5.381,0,0,0,5.1,3.844,5.579,5.579,0,0,0,5.767-2.944,27.358,27.358,0,0,1-3.587-.077A4,4,0,0,0,87.929,224.7Z" transform="translate(-64.923 -181.885)"/>
          <path id="Path_102" data-name="Path 102" class="cls-12" d="M82.09,223.791s.155.1.431.256.676.369,1.162.6c.245.113.512.225.8.342s.59.213.906.317.65.176.987.252a9.368,9.368,0,0,0,1.034.147l.533.03.511-.006c.345-.02.686-.042,1.015-.086s.646-.1.946-.165.581-.136.841-.206c.517-.147.949-.283,1.244-.4s.467-.182.467-.182a7.848,7.848,0,0,1-1.6.9c-.255.109-.536.216-.84.312a9.545,9.545,0,0,1-.973.251,9.186,9.186,0,0,1-1.071.142l-.567.015-.554-.021a10.038,10.038,0,0,1-1.107-.179,8.687,8.687,0,0,1-1.951-.723c-.283-.144-.543-.3-.777-.444A7.922,7.922,0,0,1,82.09,223.791Z" transform="translate(-64.923 -181.885)"/>
        </g>
      </g>
      <g id="Group_84" data-name="Group 84" transform="translate(2.005 70.617)">
        <path id="Path_103" data-name="Path 103" class="cls-5" d="M50.713,264.774l-1.359-4.106a2.1,2.1,0,0,0-2.815,2.481l1.542,4.9,3.758,3.775C52.163,269.789,51.272,266.766,50.713,264.774Z" transform="translate(-38.464 -260.519)"/>
        <path id="Path_104" data-name="Path 104" class="cls-5" d="M45.45,269.576,42.683,267.3l-7.2,9.544,1.363,1.29c2.5,2.454,6.2,2.832,8.2,1.9l3.278-4.255.394-1.517c.063-.245.117-.492.168-.738Z" transform="translate(-35.481 -262.359)"/>
      </g>
      <g id="Group_85" data-name="Group 85" transform="translate(64.419 70.768)">
        <path id="Path_105" data-name="Path 105" class="cls-5" d="M121.284,265.385l.458-4.3a2.1,2.1,0,0,1,3.278,1.829l-.468,5.117-2.873,4.485C120.929,270.593,121.16,267.45,121.284,265.385Z" transform="translate(-121.151 -260.725)"/>
        <path id="Path_106" data-name="Path 106" class="cls-5" d="M124.315,269.382l2.222-2.811,9.06,7.8-1.059,1.55c-1.926,2.929-5.458,4.081-7.607,3.595l-4.105-3.464-.707-1.4c-.114-.226-.219-.455-.321-.686Z" transform="translate(-121.327 -262.312)"/>
      </g>
      <path id="Path_107" data-name="Path 107" class="cls-13" d="M85.293,286.623a7.7,7.7,0,0,1-2.641,5.7l13.792.049.049-13.792a7.7,7.7,0,0,0,5.7,2.641c4.5.016,8.155-4.051,8.173-9.083s-3.613-9.126-8.109-9.141a7.7,7.7,0,0,0-5.721,2.6l.049-13.792L82.8,251.759a7.7,7.7,0,0,1,2.6,5.721c-.016,4.5-4.108,8.126-9.141,8.108s-9.1-3.676-9.084-8.172a7.7,7.7,0,0,1,2.642-5.7l-13.792-.049-.049,13.792h0a7.7,7.7,0,0,0-5.7-2.642c-4.5-.016-8.155,4.051-8.173,9.084s3.612,9.125,8.108,9.141a7.7,7.7,0,0,0,5.721-2.6h0l-.049,13.791,13.792.05a7.7,7.7,0,0,1-2.6-5.721c.015-4.5,4.108-8.126,9.14-8.108S85.309,282.127,85.293,286.623Z" transform="translate(-35.272 -187.498)"/>
      <path id="Path_108" data-name="Path 108" class="cls-14" d="M84.9,284.537a7.7,7.7,0,0,1-2.642,5.7l13.792.049L96.1,276.5a7.7,7.7,0,0,0,5.7,2.642c4.5.015,8.155-4.051,8.173-9.084s-3.612-9.125-8.108-9.141a7.7,7.7,0,0,0-5.721,2.6l.05-13.792L82.4,249.673a7.7,7.7,0,0,1,2.6,5.721c-.016,4.5-4.109,8.126-9.141,8.109s-9.1-3.677-9.084-8.173a7.7,7.7,0,0,1,2.642-5.7l-13.792-.049-.049,13.792h0a7.7,7.7,0,0,0-5.7-2.642c-4.5-.016-8.155,4.051-8.173,9.084s3.612,9.125,8.108,9.141a7.7,7.7,0,0,0,5.721-2.6h0l-.049,13.792,13.792.049a7.7,7.7,0,0,1-2.6-5.721c.016-4.5,4.109-8.126,9.141-8.108S84.915,280.041,84.9,284.537Z" transform="translate(-35.165 -186.932)"/>
      <path id="Path_109" data-name="Path 109" class="cls-6" d="M93.933,166.887c-8.029-6.112-13.858-1.751-13.858-1.751s-5.8-4.4-13.87,1.653S51.923,188.4,52.53,198.1s8,12.932,11.548,11.934c-2.353-1.151-3.309-11.456-1.115-20.152,1.268-5.026,6.776-10.214,11.2-13.7a9.443,9.443,0,0,1,11.743.042c4.4,3.516,9.872,8.743,11.1,13.777,2.132,8.712,1.1,19.01-1.257,20.144,3.538,1.024,10.957-2.159,11.633-11.852S101.962,173,93.933,166.887Z" transform="translate(-38.093 -163.59)"/>
      <g id="Group_87" data-name="Group 87" transform="translate(67.344 72.031)">
        <path id="Path_110" data-name="Path 110" class="cls-5" d="M125.483,266.532a1.1,1.1,0,0,0-.279,1.075l.052.2a1.763,1.763,0,0,0,1.727,1.231,1.336,1.336,0,0,0,.888-.341l3.529-3.441a1.632,1.632,0,0,0-.269-2.549h0a1.632,1.632,0,0,0-2.02.222Z" transform="translate(-125.165 -262.459)"/>
        <path id="Path_111" data-name="Path 111" class="cls-5" d="M128.717,269.336a2.154,2.154,0,0,0-.685,1.4,1.809,1.809,0,0,0,1.43,1.814,1.336,1.336,0,0,0,1.234-.3l4.027-4.018a1.694,1.694,0,0,0-.046-2.442h0a1.694,1.694,0,0,0-2.328.025Z" transform="translate(-125.942 -263.242)"/>
        <g id="Group_86" data-name="Group 86" transform="translate(4.586 4.511)">
          <path id="Path_112" data-name="Path 112" class="cls-5" d="M135.879,275.426a1.179,1.179,0,0,0-.28.777,1.537,1.537,0,0,0,1.123,1.5,1.333,1.333,0,0,0,1.2-.305l2.5-2.312a1.544,1.544,0,0,0,.194-2.052h0a1.543,1.543,0,0,0-2.295-.21l-.814.761Z" transform="translate(-132.584 -269.671)"/>
          <path id="Path_113" data-name="Path 113" class="cls-5" d="M135.014,269.464l-.283.254-3.031,3.289a1.2,1.2,0,0,0-.234.86,1.745,1.745,0,0,0,1.455,1.52,1.573,1.573,0,0,0,1.342-.43l2.878-2.615.763-.963a1.67,1.67,0,0,0-.139-2.264h0a1.67,1.67,0,0,0-2.2-.092Z" transform="translate(-131.461 -268.651)"/>
        </g>
      </g>
      <g id="Group_89" data-name="Group 89" transform="translate(0 73.188)">
        <path id="Path_114" data-name="Path 114" class="cls-5" d="M45.778,267.052a1.1,1.1,0,0,1,.5.992l-.007.21a1.762,1.762,0,0,1-1.426,1.569,1.332,1.332,0,0,1-.94-.145l-4.178-2.616a1.631,1.631,0,0,1-.278-2.548h0a1.634,1.634,0,0,1,2.021-.211Z" transform="translate(-34.421 -264.047)"/>
        <path id="Path_115" data-name="Path 115" class="cls-5" d="M43.046,270.51a2.152,2.152,0,0,1,.966,1.224A1.81,1.81,0,0,1,43,273.809a1.332,1.332,0,0,1-1.268-.028l-4.787-3.072a1.694,1.694,0,0,1-.473-2.4h0a1.693,1.693,0,0,1,2.281-.468Z" transform="translate(-33.662 -265.009)"/>
        <g id="Group_88" data-name="Group 88" transform="translate(0 5.391)">
          <path id="Path_116" data-name="Path 116" class="cls-5" d="M38.008,277.843a1.182,1.182,0,0,1,.438.7,1.538,1.538,0,0,1-.78,1.7,1.332,1.332,0,0,1-1.238-.044l-2.938-1.729a1.543,1.543,0,0,1-.624-1.964h0a1.543,1.543,0,0,1,2.2-.691l.957.571Z" transform="translate(-32.729 -272.574)"/>
          <path id="Path_117" data-name="Path 117" class="cls-5" d="M37.054,271.941l.331.188,3.658,2.573a1.2,1.2,0,0,1,.411.79,1.745,1.745,0,0,1-1.1,1.794,1.575,1.575,0,0,1-1.4-.136L35.584,275.2l-.949-.78a1.67,1.67,0,0,1-.344-2.242h0a1.671,1.671,0,0,1,2.134-.557Z" transform="translate(-33.076 -271.447)"/>
        </g>
      </g>
      <path id="Path_118" data-name="Path 118" class="cls-6" d="M84.634,176.184s-.307,11.611,13.008,14.824,10.621,5.966,10.621,5.966l-.176-11.735L97.254,171.776Z" transform="translate(-46.819 -165.812)"/>
    </g>
  </g>
</svg>
