<svg xmlns="http://www.w3.org/2000/svg" width="85.896" height="125.572" viewBox="0 0 85.896 125.572">
  <defs>
    <style>
      .cls-1 {
        fill: #65bed5;
      }

      .cls-11, .cls-2 {
        fill: #919293;
        opacity: 0.7;
        mix-blend-mode: multiply;
        isolation: isolate;
      }

      .cls-3 {
        fill: #fdcea4;
      }

      .cls-4 {
        fill: #ffe3c2;
      }

      .cls-5 {
        fill: #edbe5a;
      }

      .cls-6 {
        fill: #fff;
      }

      .cls-7 {
        fill: #121010;
      }

      .cls-8 {
        opacity: 0.5;
      }

      .cls-9 {
        fill: #ffabab;
      }

      .cls-10 {
        fill: #e57874;
      }

      .cls-11, .cls-12 {
        fill-rule: evenodd;
      }

      .cls-12 {
        fill: #ff2444;
      }
    </style>
  </defs>
  <g id="Group_130" data-name="Group 130" transform="translate(-357.104 -158.815)">
    <path id="Path_40" data-name="Path 40" class="cls-1" d="M431.79,297.72l-.351.154a64.247,64.247,0,0,1-51.568-.154h0l3.106-44.477h45.706Z" transform="translate(-5.016 -20.803)"/>
    <g id="Group_65" data-name="Group 65" transform="translate(357.104 158.815)">
      <g id="Group_58" data-name="Group 58" transform="translate(8.837)">
        <g id="Group_43" data-name="Group 43" transform="translate(0 48.458)">
          <path id="Path_41" data-name="Path 41" class="cls-1" d="M428.2,234.739c-3.905-4.819-8.221-7.367-12.491-7.046-.136-.229-6.561-.426-12.394-.558-5.833.133-12.258.329-12.394.558-4.27-.321-8.586,2.227-12.491,7.046-3.012,3.717-6.354,10.668-9.048,16.98a11.634,11.634,0,0,0,9.028,16.088c.146.02.258.034.335.04,2.5-4.383,3.444-11.96,5.992-19.691a98.63,98.63,0,0,0-.621,17.268s9.065.391,19.2.74c10.134-.349,19.2-.74,19.2-.74a98.723,98.723,0,0,0-.621-17.268c1.569,6.313,3.487,15.308,5.991,19.691.076-.006.189-.02.334-.04a11.634,11.634,0,0,0,9.028-16.088C434.551,245.407,431.209,238.456,428.2,234.739Z" transform="translate(-368.438 -222.325)"/>
          <g id="Group_42" data-name="Group 42" transform="translate(22.433)">
            <path id="Path_42" data-name="Path 42" class="cls-2" d="M397.21,230.116l3.277-.769s10.769-17.511,17.906-1.911c.282.618.631,1.52.631,1.52a12.732,12.732,0,0,1-10.7,6.5C401.33,235.909,397.21,230.116,397.21,230.116Z" transform="translate(-397.21 -220.965)"/>
          </g>
        </g>
        <g id="Group_57" data-name="Group 57" transform="translate(5.884)">
          <g id="Group_55" data-name="Group 55" transform="translate(1.632 2.887)">
            <g id="Group_54" data-name="Group 54">
              <g id="Group_53" data-name="Group 53">
                <g id="Group_45" data-name="Group 45" transform="translate(0 29.452)">
                  <g id="Group_44" data-name="Group 44">
                    <path id="Path_43" data-name="Path 43" class="cls-3" d="M434.634,210.571l-1.816.076-.429-10.229,2.942-.123a4.156,4.156,0,0,1,3.892,6.011l-.957,1.913A4.26,4.26,0,0,1,434.634,210.571Z" transform="translate(-390.043 -200.291)"/>
                    <path id="Path_44" data-name="Path 44" class="cls-3" d="M379.8,210.624l-1.113-1.826a4.156,4.156,0,0,1,3.375-6.316l2.942-.123.429,10.228-1.816.076A4.262,4.262,0,0,1,379.8,210.624Z" transform="translate(-378.078 -200.747)"/>
                  </g>
                </g>
                <path id="Path_45" data-name="Path 45" class="cls-4" d="M384.093,200.659l-.721-17.207a20.092,20.092,0,0,1,40.149-1.683l.721,17.207a20.092,20.092,0,1,1-40.149,1.683Z" transform="translate(-379.241 -162.518)"/>
                <g id="Group_47" data-name="Group 47" transform="translate(10.573 25.777)">
                  <g id="Group_46" data-name="Group 46">
                    <path id="Path_46" data-name="Path 46" class="cls-5" d="M417.916,198.23a1.328,1.328,0,1,1-.037-2.649l.962.061a9.412,9.412,0,0,1,6.316,3l-.45-.16a9.415,9.415,0,0,0-4.016-.509Z" transform="translate(-397.109 -195.579)"/>
                    <path id="Path_47" data-name="Path 47" class="cls-5" d="M396.033,198.941a9.419,9.419,0,0,0-3.959.843l-.435.2a9.413,9.413,0,0,1,6.043-3.522l.954-.141a1.328,1.328,0,1,1,.186,2.642Z" transform="translate(-391.639 -195.738)"/>
                  </g>
                  <path id="Path_48" data-name="Path 48" class="cls-3" d="M407.263,216.228l-.007,0a1.949,1.949,0,0,1-1.165-1.924c.01-.067.152-.182.371-.324a5.594,5.594,0,0,1,5.665-.237c.23.122.382.226.4.292a1.947,1.947,0,0,1-1,2.014A5.168,5.168,0,0,1,407.263,216.228Z" transform="translate(-394.82 -199.435)"/>
                </g>
                <g id="Group_52" data-name="Group 52" transform="translate(12.138 29.933)">
                  <g id="Group_49" data-name="Group 49" transform="translate(17.211)">
                    <path id="Path_49" data-name="Path 49" class="cls-6" d="M423.878,205.327s-.231-4.25-4.291-4.08c-3.76.158-3.867,4.7-3.867,4.7A7.558,7.558,0,0,0,423.878,205.327Z" transform="translate(-415.72 -200.982)"/>
                    <g id="Group_48" data-name="Group 48" transform="translate(1.006)">
                      <path id="Path_50" data-name="Path 50" class="cls-1" d="M417.013,203.927a2.9,2.9,0,1,1,3.017,2.774A2.9,2.9,0,0,1,417.013,203.927Z" transform="translate(-417.011 -200.909)"/>
                    </g>
                    <path id="Path_51" data-name="Path 51" class="cls-7" d="M419.19,204.336a1.2,1.2,0,1,1,1.249,1.148A1.2,1.2,0,0,1,419.19,204.336Z" transform="translate(-416.484 -201.388)"/>
                    <path id="Path_52" data-name="Path 52" class="cls-6" d="M418.079,203.09a.742.742,0,1,1,.772.71A.742.742,0,0,1,418.079,203.09Z" transform="translate(-416.24 -201.219)"/>
                  </g>
                  <g id="Group_51" data-name="Group 51" transform="translate(0 0.712)">
                    <path id="Path_53" data-name="Path 53" class="cls-6" d="M393.647,206.594s-.126-4.256,3.934-4.426c3.76-.157,4.247,4.362,4.247,4.362A7.558,7.558,0,0,1,393.647,206.594Z" transform="translate(-393.646 -201.897)"/>
                    <g id="Group_50" data-name="Group 50" transform="translate(1.22)">
                      <path id="Path_54" data-name="Path 54" class="cls-1" d="M395.214,204.841a2.9,2.9,0,1,1,3.017,2.774A2.9,2.9,0,0,1,395.214,204.841Z" transform="translate(-395.212 -201.822)"/>
                    </g>
                    <path id="Path_55" data-name="Path 55" class="cls-7" d="M397.391,205.25a1.2,1.2,0,1,1,1.249,1.148A1.2,1.2,0,0,1,397.391,205.25Z" transform="translate(-394.471 -202.301)"/>
                    <path id="Path_56" data-name="Path 56" class="cls-6" d="M396.28,204a.742.742,0,1,1,.772.71A.741.741,0,0,1,396.28,204Z" transform="translate(-394.226 -202.132)"/>
                  </g>
                </g>
              </g>
            </g>
            <path id="Path_57" data-name="Path 57" class="cls-3" d="M423.868,205.2a3.463,3.463,0,0,0,.009-.586,4.79,4.79,0,0,0-.341-1.531,4.115,4.115,0,0,0-.531-.946c-.123-.152-.26-.3-.4-.455a4.509,4.509,0,0,0-.508-.393,3.853,3.853,0,0,0-1.239-.515,5.53,5.53,0,0,0-1.388-.114l-.621.083c-.237.067-.477.132-.7.212a3.769,3.769,0,0,0-1.863,1.74,4.248,4.248,0,0,0-.4,1,5.723,5.723,0,0,0-.21,1.545,4.037,4.037,0,0,0,.037.584s.044-.209.148-.558a9,9,0,0,1,.529-1.382,3.391,3.391,0,0,1,.222-.409,3.227,3.227,0,0,1,.264-.409,3.871,3.871,0,0,1,.692-.744,3.244,3.244,0,0,1,.429-.3c.152-.087.322-.143.479-.225l.487-.14.619-.069c.126-.006.362,0,.536,0a3.48,3.48,0,0,1,.552.066,3.617,3.617,0,0,1,1,.338c.157.074.284.189.431.271.129.107.257.214.377.325a5.075,5.075,0,0,1,.582.734,6.694,6.694,0,0,1,.635,1.323C423.818,204.992,423.868,205.2,423.868,205.2Z" transform="translate(-386.361 -170.921)"/>
            <path id="Path_58" data-name="Path 58" class="cls-3" d="M393.63,206.464s.033-.211.126-.563a6.666,6.666,0,0,1,.522-1.371,5.077,5.077,0,0,1,.519-.781c.109-.121.228-.238.347-.355.14-.094.258-.219.408-.306a3.6,3.6,0,0,1,.971-.42,3.472,3.472,0,0,1,.544-.113c.175-.013.409-.043.535-.047l.622.016.5.1c.164.069.338.111.5.185a3.258,3.258,0,0,1,.451.259,3.894,3.894,0,0,1,.752.683,3.3,3.3,0,0,1,.3.387,3.533,3.533,0,0,1,.256.388,9.1,9.1,0,0,1,.642,1.333c.133.339.194.543.194.543a3.925,3.925,0,0,0-.012-.585,5.7,5.7,0,0,0-.338-1.523,4.213,4.213,0,0,0-.478-.959,3.764,3.764,0,0,0-2-1.577c-.232-.062-.476-.106-.717-.153l-.627-.031a5.513,5.513,0,0,0-1.373.229,3.838,3.838,0,0,0-1.191.617,4.521,4.521,0,0,0-.474.434c-.131.163-.255.325-.365.487a4.118,4.118,0,0,0-.451.988,4.819,4.819,0,0,0-.211,1.553A3.432,3.432,0,0,0,393.63,206.464Z" transform="translate(-381.491 -171.122)"/>
          </g>
          <g id="Group_56" data-name="Group 56" class="cls-8" transform="translate(10.56 40.695)">
            <path id="Path_59" data-name="Path 59" class="cls-9" d="M422.03,213.364c.051,1.218,1.644,2.141,3.557,2.061s3.424-1.133,3.373-2.352-1.644-2.14-3.558-2.06S421.978,212.146,422.03,213.364Z" transform="translate(-396.688 -211.009)"/>
            <path id="Path_60" data-name="Path 60" class="cls-9" d="M389.53,214.727c.051,1.218,1.644,2.14,3.558,2.06s3.424-1.133,3.372-2.351-1.644-2.141-3.558-2.061S389.478,213.509,389.53,214.727Z" transform="translate(-389.528 -211.309)"/>
          </g>
          <path id="Path_61" data-name="Path 61" class="cls-5" d="M424.113,181.377c-.855-2.253-1.876-4.407-2.681-6.66-.525-.4-1.04-.8-1.521-1.229a30.93,30.93,0,0,1-3.138-3.87c-1.265-1.559-2.83-1.488-4.695-1.542-8.143-.235-18.82-.593-23.79,7.221-1.9,2.983-4.529,7.391-4.789,10.964a23.535,23.535,0,0,1-.608,5.64c-.286.884-.634,1.742-.932,2.614a5.914,5.914,0,0,1,1.687.989c.09-.918.251-1.853.4-2.718a11.338,11.338,0,0,0,.193-1.485,3.065,3.065,0,0,0,4.2.869c-1.329-.74-.785-2.362.252-3.6,2.294-2.745,12.072-5.19,12.474-11.649-.243,3.916-1.376,8.686-5.695,10.749a12.445,12.445,0,0,0,3.627-1.1c4.763-2.362,8.407-7.629,8.779-11.014.734,2.188.976,4.725,2.1,6.689a8.309,8.309,0,0,0,5.937,4.136,7.41,7.41,0,0,1-3.172-6.574c.012.025.027.047.039.072l0,0c.237,1.135,1.64,2.474,2.463,3.194a32.929,32.929,0,0,1,3.693,3.123c1.294,1.533,2.38,3.24,2.282,5.335-.044.962-.322,2.292-1.426,2.519a3.1,3.1,0,0,0,3.6-.8c.025-.03.046-.061.071-.09a14.311,14.311,0,0,1,.3,1.809c.938-1.613,1.9-3.267,2.674-4.927C425.257,187.258,425.19,184.214,424.113,181.377Z" transform="translate(-377.301 -160.836)"/>
          <path id="Path_62" data-name="Path 62" class="cls-9" d="M408.56,221.019l.481.116.457-.19a4.277,4.277,0,0,1,1.513-.339,29.349,29.349,0,0,0,3.8-.536s-.833,3.726-5.478,4.093a5.969,5.969,0,0,1-6.16-3.173,29.325,29.325,0,0,0,3.838-.069A4.259,4.259,0,0,1,408.56,221.019Z" transform="translate(-381.975 -172.31)"/>
          <path id="Path_63" data-name="Path 63" class="cls-10" d="M414.812,220.07s-.166.1-.462.272-.724.392-1.246.636c-.262.119-.549.239-.852.363s-.633.227-.97.337-.7.185-1.058.265a9.874,9.874,0,0,1-1.107.154l-.571.03-.547-.007c-.369-.024-.734-.048-1.086-.1s-.69-.111-1.01-.179-.621-.148-.9-.225c-.554-.159-1.016-.306-1.331-.431s-.5-.2-.5-.2a8.422,8.422,0,0,0,1.71.965c.272.117.573.233.9.337a9.994,9.994,0,0,0,1.04.271,9.679,9.679,0,0,0,1.145.157l.607.019.593-.021a10.719,10.719,0,0,0,1.185-.187,10.006,10.006,0,0,0,1.106-.334,10.2,10.2,0,0,0,.984-.432c.3-.154.583-.316.833-.473A8.463,8.463,0,0,0,414.812,220.07Z" transform="translate(-381.975 -172.31)"/>
          <path id="Path_64" data-name="Path 64" class="cls-5" d="M414.347,163.245s-3.038-5.41-15.825-4.272-18.586,9.734-21.151,18.082S375,197.7,384.927,199.991c0,0-6.541-3.555,2.094-17.611a27.1,27.1,0,0,1,23.43-13.123s16.372,18.87,10.348,29.039c5.771-3.888,9.792-13.829,4.311-24.883C420.49,164.092,416.422,163.185,414.347,163.245Z" transform="translate(-375.985 -158.815)"/>
        </g>
      </g>
      <g id="Group_59" data-name="Group 59" transform="translate(69.372 72.331)">
        <path id="Path_65" data-name="Path 65" class="cls-4" d="M447.38,256.13l1.47-4.39a2.252,2.252,0,0,1,3,2.667l-1.669,5.241-4.036,4.025C445.808,261.492,446.773,258.26,447.38,256.13Z" transform="translate(-446.078 -251.584)"/>
        <path id="Path_66" data-name="Path 66" class="cls-4" d="M449.82,260.8l2.97-2.426,7.671,10.24L459,269.995c-2.688,2.617-6.645,3.006-8.778,2l-3.493-4.567-.416-1.625c-.067-.262-.123-.526-.177-.791Z" transform="translate(-446.09 -253.081)"/>
      </g>
      <g id="Group_60" data-name="Group 60" transform="translate(1.683 72.287)">
        <path id="Path_67" data-name="Path 67" class="cls-4" d="M377.577,256.521l-.474-4.6a2.252,2.252,0,0,0-3.515,1.945l.482,5.479,3.058,4.811C377.937,262.1,377.7,258.732,377.577,256.521Z" transform="translate(-362.418 -251.528)"/>
        <path id="Path_68" data-name="Path 68" class="cls-4" d="M371.357,260.374l-2.368-3.017-9.726,8.314,1.127,1.662c2.051,3.142,5.827,4.388,8.128,3.877l4.407-3.693.762-1.494c.123-.241.235-.487.346-.733Z" transform="translate(-359.263 -252.812)"/>
      </g>
      <path id="Path_69" data-name="Path 69" class="cls-11" d="M392.107,251.315a8.236,8.236,0,0,1,2.8-6.11H380.158v14.754a8.236,8.236,0,0,0-6.11-2.8c-4.809,0-8.708,4.364-8.708,9.748s3.9,9.748,8.708,9.748a8.236,8.236,0,0,0,6.11-2.8V288.6h14.754a8.236,8.236,0,0,0-2.8,6.11c0,4.809,4.365,8.708,9.748,8.708s9.749-3.9,9.749-8.708a8.236,8.236,0,0,0-2.8-6.11h14.754V273.847a8.236,8.236,0,0,0,6.11,2.8c4.809,0,8.708-4.364,8.708-9.748s-3.9-9.748-8.708-9.748a8.234,8.234,0,0,0-6.11,2.8h0V245.2H408.8a8.236,8.236,0,0,1,2.8,6.11c0,4.809-4.365,8.708-9.749,8.708S392.107,256.125,392.107,251.315Z" transform="translate(-358.918 -177.848)"/>
      <path id="Path_70" data-name="Path 70" class="cls-12" d="M391.379,248.837a8.235,8.235,0,0,1,2.8-6.11H379.429v14.754a8.236,8.236,0,0,0-6.11-2.8c-4.809,0-8.708,4.364-8.708,9.748s3.9,9.748,8.708,9.748a8.234,8.234,0,0,0,6.11-2.8v14.755h14.754a8.233,8.233,0,0,0-2.8,6.11c0,4.809,4.364,8.708,9.748,8.708s9.748-3.9,9.748-8.708a8.231,8.231,0,0,0-2.8-6.11h14.755V271.368a8.231,8.231,0,0,0,6.11,2.8c4.809,0,8.708-4.364,8.708-9.748s-3.9-9.748-8.708-9.748a8.233,8.233,0,0,0-6.11,2.8h0V242.727H408.07a8.232,8.232,0,0,1,2.8,6.11c0,4.81-4.365,8.708-9.748,8.708S391.379,253.647,391.379,248.837Z" transform="translate(-358.758 -177.302)"/>
      <g id="Group_62" data-name="Group 62" transform="translate(73.228 75.104)">
        <path id="Path_71" data-name="Path 71" class="cls-4" d="M451.563,258.337a1.175,1.175,0,0,0-.54,1.06l.007.225a1.887,1.887,0,0,0,1.52,1.685,1.431,1.431,0,0,0,1.007-.152l4.482-2.783a1.746,1.746,0,0,0,.306-2.726h0a1.747,1.747,0,0,0-2.161-.234Z" transform="translate(-451.023 -255.141)"/>
        <path id="Path_72" data-name="Path 72" class="cls-4" d="M454.1,261.8a2.315,2.315,0,0,0-1.039,1.306,1.937,1.937,0,0,0,1.078,2.225,1.428,1.428,0,0,0,1.357-.024l5.135-3.271a1.813,1.813,0,0,0,.515-2.563h0a1.813,1.813,0,0,0-2.44-.51Z" transform="translate(-451.456 -255.924)"/>
        <g id="Group_61" data-name="Group 61" transform="translate(3.691 5.783)">
          <path id="Path_73" data-name="Path 73" class="cls-4" d="M459.877,269.1a1.267,1.267,0,0,0-.472.748,1.646,1.646,0,0,0,.829,1.828,1.426,1.426,0,0,0,1.325-.043l3.151-1.839a1.651,1.651,0,0,0,.675-2.1h0a1.652,1.652,0,0,0-2.35-.748l-1.025.607Z" transform="translate(-456.552 -263.474)"/>
          <path id="Path_74" data-name="Path 74" class="cls-4" d="M460.492,263.082l-.355.2-3.924,2.738a1.286,1.286,0,0,0-.444.844,1.867,1.867,0,0,0,1.17,1.923,1.682,1.682,0,0,0,1.5-.139l3.611-2.07,1.019-.831a1.788,1.788,0,0,0,.376-2.4h0a1.787,1.787,0,0,0-2.281-.6Z" transform="translate(-455.757 -262.558)"/>
        </g>
      </g>
      <g id="Group_64" data-name="Group 64" transform="translate(0 73.615)">
        <path id="Path_75" data-name="Path 75" class="cls-4" d="M372.5,257.607a1.178,1.178,0,0,1,.295,1.152l-.057.217a1.885,1.885,0,0,1-1.852,1.311,1.429,1.429,0,0,1-.95-.369l-3.764-3.7a1.746,1.746,0,0,1,.3-2.727h0a1.746,1.746,0,0,1,2.161.246Z" transform="translate(-358.986 -253.231)"/>
        <path id="Path_76" data-name="Path 76" class="cls-4" d="M369.086,260.395a2.312,2.312,0,0,1,.728,1.5,1.938,1.938,0,0,1-1.538,1.936,1.428,1.428,0,0,1-1.32-.321l-4.295-4.316a1.812,1.812,0,0,1,.058-2.613h0a1.813,1.813,0,0,1,2.492.036Z" transform="translate(-358.212 -253.864)"/>
        <g id="Group_63" data-name="Group 63" transform="translate(0 4.81)">
          <path id="Path_77" data-name="Path 77" class="cls-4" d="M362.5,266.392a1.265,1.265,0,0,1,.3.833,1.645,1.645,0,0,1-1.209,1.6,1.426,1.426,0,0,1-1.283-.332l-2.672-2.483a1.652,1.652,0,0,1-.2-2.2h0a1.652,1.652,0,0,1,2.457-.215l.867.816Z" transform="translate(-357.104 -260.226)"/>
          <path id="Path_78" data-name="Path 78" class="cls-4" d="M362.7,260.276l.3.273,3.23,3.531a1.283,1.283,0,0,1,.248.921,1.867,1.867,0,0,1-1.563,1.621,1.683,1.683,0,0,1-1.435-.465l-3.07-2.81-.812-1.034a1.786,1.786,0,0,1,.158-2.422h0a1.786,1.786,0,0,1,2.358-.09Z" transform="translate(-357.566 -259.4)"/>
        </g>
      </g>
    </g>
  </g>
</svg>
