<svg xmlns="http://www.w3.org/2000/svg" width="76.224" height="128.044" viewBox="0 0 76.224 128.044">
  <defs>
    <style>
      .cls-1 {
        opacity: 0.8;
      }

      .cls-2 {
        fill: #5ac45a;
      }

      .cls-3 {
        fill: #7d4a2e;
      }

      .cls-13, .cls-4 {
        fill: #919293;
        opacity: 0.7;
        mix-blend-mode: multiply;
        isolation: isolate;
      }

      .cls-5 {
        fill: #fdcea4;
      }

      .cls-6 {
        fill: #ffe3c2;
      }

      .cls-7 {
        fill: #fff;
      }

      .cls-8 {
        fill: #6aa679;
      }

      .cls-9 {
        fill: #121010;
      }

      .cls-10 {
        opacity: 0.5;
      }

      .cls-11 {
        fill: #ffabab;
      }

      .cls-12 {
        fill: #e57874;
      }

      .cls-13, .cls-14 {
        fill-rule: evenodd;
      }

      .cls-14 {
        fill: #303970;
      }

      .cls-15 {
        fill: #ffbf94;
      }
    </style>
  </defs>
  <g id="Group_128" data-name="Group 128" class="cls-1" transform="matrix(0.999, -0.035, 0.035, 0.999, -160.883, -145.193)">
    <path id="Path_3" data-name="Path 3" class="cls-2" d="M219.944,297.058l-.345.152a63.293,63.293,0,0,1-50.8-.151h0l3.06-43.815h45.026Z" transform="translate(-3.501 -23.279)"/>
    <g id="Group_40" data-name="Group 40" transform="translate(153.703 152.862)">
      <g id="Group_30" data-name="Group 30">
        <path id="Path_4" data-name="Path 4" class="cls-3" d="M202.389,165.606a46.832,46.832,0,0,0,3.414,5.062c7.064,9.181,8.463,23.649,8.463,23.649a11.758,11.758,0,0,0,3.364-4.531,27.457,27.457,0,0,0,1.8-18.494c-.532-2.175-2.989-9.6-8.623-12.24l1.254-1c-2.221-1.622-6.591-1.757-6.591-1.757a8.851,8.851,0,0,1,1.209-2.223,12.614,12.614,0,0,0-7.193,1.215,13.856,13.856,0,0,1,.819-2.429s-4.131.139-6.448,3.06c-2.317-2.921-6.447-3.06-6.447-3.06a13.857,13.857,0,0,1,.819,2.429,12.614,12.614,0,0,0-7.193-1.215,8.852,8.852,0,0,1,1.209,2.223s-4.37.134-6.591,1.757l1.254,1c-5.634,2.644-8.092,10.065-8.623,12.24a27.457,27.457,0,0,0,1.8,18.494,11.765,11.765,0,0,0,3.363,4.531s1.4-14.468,8.464-23.649a46.834,46.834,0,0,0,3.414-5.062Z" transform="translate(-156.892 -152.862)"/>
        <path id="Path_5" data-name="Path 5" class="cls-2" d="M190.871,244.944l1.705-.167c9.014-.885,12.206,35.829,26.193,35.829,9.938,0,10.629-12.832,7.871-20.811s-9.49-21.359-15.929-29.048-19.84-5.132-19.84-5.132-13.4-2.557-19.84,5.132S157.86,251.816,155.1,259.795s-2.068,20.811,7.87,20.811c13.987,0,17.18-36.714,26.193-35.829Z" transform="translate(-153.703 -169.639)"/>
        <g id="Group_29" data-name="Group 29" transform="translate(12.707 15.5)">
          <path id="Path_6" data-name="Path 6" class="cls-4" d="M209.34,226.733l-3.257-.623s-11.312-16.8-17.7-1.153c-.253.619-.559,1.522-.559,1.522a12.544,12.544,0,0,0,10.8,5.963C205.52,232.6,209.34,226.733,209.34,226.733Z" transform="translate(-174.322 -183.535)"/>
          <g id="Group_27" data-name="Group 27">
            <g id="Group_26" data-name="Group 26">
              <g id="Group_15" data-name="Group 15">
                <g id="Group_12" data-name="Group 12" transform="translate(0 19.564)">
                  <path id="Path_7" data-name="Path 7" class="cls-5" d="M175.447,208.6h1.79l.006-10.085-2.9,0a4.094,4.094,0,0,0-3.586,6.075l1.018,1.843A4.2,4.2,0,0,0,175.447,208.6Z" transform="translate(-170.246 -198.513)"/>
                  <path id="Path_8" data-name="Path 8" class="cls-5" d="M230.283,206.466l1.021-1.842a4.095,4.095,0,0,0-3.579-6.079l-2.9,0-.006,10.085h1.79A4.2,4.2,0,0,0,230.283,206.466Z" transform="translate(-182.902 -198.52)"/>
                </g>
                <path id="Path_9" data-name="Path 9" class="cls-6" d="M215.494,187.994a4.873,4.873,0,0,1-1.32-3.026,6.845,6.845,0,0,0-2.961-5.626,27.9,27.9,0,0,0-10.791-5.6c-9.508-2.447-18.251,1.7-23.961,9.464-.042.058-.091.1-.136.151l-.01,16.128a19.794,19.794,0,1,0,39.587.025l.006-11.109A2.388,2.388,0,0,1,215.494,187.994Z" transform="translate(-171.654 -173.041)"/>
                <g id="Group_14" data-name="Group 14" transform="translate(10.633 15.373)">
                  <g id="Group_13" data-name="Group 13">
                    <path id="Path_10" data-name="Path 10" class="cls-3" d="M191.2,195.671a1.309,1.309,0,1,0-.072-2.608l-.945.1a9.271,9.271,0,0,0-6.094,3.213l.436-.176a9.265,9.265,0,0,1,3.932-.664Z" transform="translate(-184.09 -193.056)"/>
                    <path id="Path_11" data-name="Path 11" class="cls-3" d="M213.167,195.549a9.265,9.265,0,0,1,3.931.668l.436.177a9.269,9.269,0,0,0-6.09-3.221l-.945-.1a1.308,1.308,0,1,0-.075,2.608Z" transform="translate(-189.879 -193.058)"/>
                  </g>
                  <path id="Path_12" data-name="Path 12" class="cls-5" d="M203.215,213.231l.007,0a1.916,1.916,0,0,0,1.068-1.94c-.012-.066-.157-.174-.378-.3a5.51,5.51,0,0,0-5.586,0c-.222.131-.367.239-.379.3a1.92,1.92,0,0,0,1.066,1.942A5.09,5.09,0,0,0,203.215,213.231Z" transform="translate(-187.297 -197.037)"/>
                </g>
              </g>
              <g id="Group_25" data-name="Group 25" transform="translate(8.622 19.338)">
                <g id="Group_23" data-name="Group 23" transform="translate(3.357)">
                  <g id="Group_22" data-name="Group 22" transform="translate(0.035 0.194)">
                    <g id="Group_21" data-name="Group 21">
                      <g id="Group_20" data-name="Group 20">
                        <g id="Group_17" data-name="Group 17" transform="translate(16.958)">
                          <path id="Path_13" data-name="Path 13" class="cls-7" d="M216.02,203s-.06-4.193-4.063-4.185c-3.708.007-3.991,4.476-3.991,4.476A7.444,7.444,0,0,0,216.02,203Z" transform="translate(-207.966 -198.549)"/>
                          <g id="Group_16" data-name="Group 16" transform="translate(1.07)">
                            <path id="Path_14" data-name="Path 14" class="cls-8" d="M209.359,201.33a2.854,2.854,0,1,1,2.86,2.849A2.855,2.855,0,0,1,209.359,201.33Z" transform="translate(-209.359 -198.47)"/>
                          </g>
                          <path id="Path_15" data-name="Path 15" class="cls-9" d="M211.536,201.832a1.182,1.182,0,1,1,1.184,1.18A1.182,1.182,0,0,1,211.536,201.832Z" transform="translate(-208.794 -198.975)"/>
                          <path id="Path_16" data-name="Path 16" class="cls-7" d="M210.482,200.544a.73.73,0,1,1,.731.729A.731.731,0,0,1,210.482,200.544Z" transform="translate(-208.549 -198.781)"/>
                        </g>
                        <g id="Group_19" data-name="Group 19" transform="translate(0 0.032)">
                          <path id="Path_17" data-name="Path 17" class="cls-7" d="M185.888,203.054s.044-4.194,4.047-4.2c3.707-.007,4.009,4.462,4.009,4.462A7.446,7.446,0,0,1,185.888,203.054Z" transform="translate(-185.888 -198.591)"/>
                          <g id="Group_18" data-name="Group 18" transform="translate(1.27)">
                            <path id="Path_18" data-name="Path 18" class="cls-8" d="M187.541,201.372a2.854,2.854,0,1,1,2.86,2.85A2.854,2.854,0,0,1,187.541,201.372Z" transform="translate(-187.541 -198.512)"/>
                          </g>
                          <path id="Path_19" data-name="Path 19" class="cls-9" d="M189.718,201.874a1.182,1.182,0,1,1,1.184,1.18A1.181,1.181,0,0,1,189.718,201.874Z" transform="translate(-186.776 -199.017)"/>
                          <path id="Path_20" data-name="Path 20" class="cls-7" d="M188.664,200.586a.73.73,0,1,1,.731.729A.731.731,0,0,1,188.664,200.586Z" transform="translate(-186.532 -198.823)"/>
                        </g>
                      </g>
                    </g>
                  </g>
                  <path id="Path_21" data-name="Path 21" class="cls-5" d="M216.015,202.859a3.392,3.392,0,0,0,.032-.576,4.721,4.721,0,0,0-.275-1.52,4.049,4.049,0,0,0-.485-.952c-.115-.154-.245-.308-.381-.463a4.331,4.331,0,0,0-.485-.406,3.8,3.8,0,0,0-1.2-.556,5.479,5.479,0,0,0-1.362-.167l-.615.058c-.235.056-.474.111-.7.181a3.717,3.717,0,0,0-1.9,1.638,4.191,4.191,0,0,0-.429.966,5.6,5.6,0,0,0-.267,1.512,3.849,3.849,0,0,0,.013.576s.051-.2.167-.543a8.93,8.93,0,0,1,.575-1.34,3.344,3.344,0,0,1,.235-.393,3.166,3.166,0,0,1,.277-.393,3.815,3.815,0,0,1,.71-.705,3.232,3.232,0,0,1,.433-.274c.154-.079.323-.127.481-.2l.484-.119.612-.042c.124,0,.356.017.528.023a3.293,3.293,0,0,1,.541.088,3.552,3.552,0,0,1,.975.372c.151.079.271.2.413.284.124.109.245.22.358.334a5.008,5.008,0,0,1,.544.746,6.635,6.635,0,0,1,.573,1.327C215.974,202.653,216.015,202.859,216.015,202.859Z" transform="translate(-190.968 -198.218)"/>
                  <path id="Path_22" data-name="Path 22" class="cls-5" d="M185.878,202.917s.04-.207.146-.548a6.587,6.587,0,0,1,.568-1.33,4.911,4.911,0,0,1,.541-.748c.112-.114.233-.226.356-.336.141-.088.262-.206.412-.286a3.539,3.539,0,0,1,.973-.376,3.477,3.477,0,0,1,.54-.09c.173-.006.4-.026.528-.025l.612.04.485.118c.157.075.327.123.481.2a3.224,3.224,0,0,1,.434.273,3.817,3.817,0,0,1,.714.7,3.224,3.224,0,0,1,.278.392,3.45,3.45,0,0,1,.237.392,8.92,8.92,0,0,1,.58,1.337c.117.34.17.543.17.543a3.985,3.985,0,0,0,.011-.576,5.656,5.656,0,0,0-.273-1.512,4.2,4.2,0,0,0-.432-.963,3.716,3.716,0,0,0-1.909-1.631c-.225-.07-.465-.123-.7-.179l-.616-.055a5.44,5.44,0,0,0-1.361.172,3.81,3.81,0,0,0-1.2.56,4.493,4.493,0,0,0-.483.409c-.136.155-.264.31-.379.465a4.055,4.055,0,0,0-.482.954,4.716,4.716,0,0,0-.269,1.522A3.3,3.3,0,0,0,185.878,202.917Z" transform="translate(-185.843 -198.228)"/>
                </g>
                <g id="Group_24" data-name="Group 24" class="cls-10" transform="translate(0 8.125)">
                  <path id="Path_23" data-name="Path 23" class="cls-11" d="M214,210.977c0,1.2,1.534,2.172,3.421,2.169s3.414-.981,3.412-2.182-1.534-2.171-3.42-2.168S214,209.777,214,210.977Z" transform="translate(-189.016 -208.796)"/>
                  <path id="Path_24" data-name="Path 24" class="cls-11" d="M181.472,211.04c0,1.2,1.534,2.172,3.42,2.168s3.415-.98,3.413-2.181-1.534-2.172-3.42-2.168S181.47,209.839,181.472,211.04Z" transform="translate(-181.472 -208.811)"/>
                </g>
                <path id="Path_25" data-name="Path 25" class="cls-11" d="M200.172,218.2l.469.134.457-.17a4.206,4.206,0,0,1,1.5-.274,28.829,28.829,0,0,0,3.763-.378,5.672,5.672,0,0,1-5.553,3.814,5.881,5.881,0,0,1-5.938-3.366,28.773,28.773,0,0,0,3.781.083A4.217,4.217,0,0,1,200.172,218.2Z" transform="translate(-184.58 -202.693)"/>
                <path id="Path_26" data-name="Path 26" class="cls-12" d="M206.363,217.514s-.167.1-.465.25-.729.357-1.251.577c-.263.108-.55.214-.854.323s-.631.2-.968.293-.693.154-1.051.22a10.18,10.18,0,0,1-1.1.108l-.563.007-.538-.029c-.363-.038-.72-.075-1.065-.137s-.675-.137-.988-.217-.606-.17-.876-.257c-.538-.178-.987-.341-1.293-.477s-.483-.213-.483-.213a8.31,8.31,0,0,0,1.645,1.018c.263.126.555.251.87.366a9.78,9.78,0,0,0,1.013.309,9.588,9.588,0,0,0,1.121.2l.6.042.585,0a10.73,10.73,0,0,0,1.174-.137,9.214,9.214,0,0,0,2.088-.673c.306-.139.586-.287.839-.433A8.287,8.287,0,0,0,206.363,217.514Z" transform="translate(-184.579 -202.693)"/>
              </g>
            </g>
          </g>
          <g id="Group_28" data-name="Group 28" class="cls-10" transform="translate(8.545 27.48)">
            <path id="Path_27" data-name="Path 27" class="cls-11" d="M188.2,210.995c0,1.2-1.531,2.174-3.417,2.173s-3.416-.976-3.416-2.177,1.531-2.174,3.418-2.173S188.2,209.793,188.2,210.995Z" transform="translate(-181.371 -208.818)"/>
            <path id="Path_28" data-name="Path 28" class="cls-11" d="M220.732,211.015c0,1.2-1.531,2.174-3.417,2.173s-3.416-.976-3.416-2.178,1.532-2.174,3.418-2.173S220.733,209.813,220.732,211.015Z" transform="translate(-188.915 -208.822)"/>
          </g>
        </g>
      </g>
      <path id="Path_29" data-name="Path 29" class="cls-13" d="M219.2,257.084a8.1,8.1,0,0,0-6.01,2.758V245.329H198.677a8.1,8.1,0,0,0,2.758-6.01c0-4.731-4.293-8.566-9.588-8.566s-9.589,3.835-9.589,8.566a8.1,8.1,0,0,0,2.758,6.01H170.5v14.513h0a8.1,8.1,0,0,0-6.01-2.758c-4.731,0-8.566,4.293-8.566,9.589s3.835,9.589,8.566,9.589a8.1,8.1,0,0,0,6.01-2.759h0v14.514h14.513a8.1,8.1,0,0,1-2.758-6.01c0-4.731,4.293-8.566,9.589-8.566s9.588,3.836,9.588,8.566a8.1,8.1,0,0,1-2.758,6.01H213.19V273.5a8.1,8.1,0,0,0,6.01,2.759c4.731,0,8.566-4.293,8.566-9.589S223.931,257.084,219.2,257.084Z" transform="translate(-154.218 -170.926)"/>
      <path id="Path_30" data-name="Path 30" class="cls-14" d="M218.6,254.523a8.1,8.1,0,0,0-6.01,2.759V242.768H198.078a8.1,8.1,0,0,0,2.758-6.01c0-4.731-4.293-8.566-9.588-8.566s-9.589,3.835-9.589,8.566a8.1,8.1,0,0,0,2.758,6.01H169.9v14.514h0a8.1,8.1,0,0,0-6.01-2.759c-4.731,0-8.566,4.294-8.566,9.589s3.835,9.589,8.566,9.589a8.1,8.1,0,0,0,6.01-2.758h0v14.513h14.513a8.1,8.1,0,0,1-2.758-6.01c0-4.731,4.293-8.566,9.589-8.566s9.588,3.836,9.588,8.566a8.1,8.1,0,0,1-2.758,6.01h14.513V270.942a8.1,8.1,0,0,0,6.01,2.758c4.731,0,8.566-4.293,8.566-9.589S223.332,254.523,218.6,254.523Z" transform="translate(-154.08 -170.332)"/>
      <path id="Path_31" data-name="Path 31" class="cls-3" d="M217.226,185.664l-1.83,1.423s-.257-2.119-2.761-5.458a40.449,40.449,0,0,1-4.443-8.692s-.078,2.71,0,4.245c0,0-4.6-2.787-6.2-6.126a9.034,9.034,0,0,0,.5,4.7s-7.184-2.466-9.609-6.229a14.984,14.984,0,0,0,.7,4.056c-3.06-.3-6.05-4.056-6.05-4.056s-.627,3.895-2.714,5.147c0,0-1.266-2.044-1.607-2.622,0,0-.34,5.543-2.845,7.908,0,0-.415-2.46-1.113-3.2,0,0-1.372,7.751-3.446,10.3l-1.7-1.721,1.5-15.051,10.611-8.259a14.685,14.685,0,0,1,19.731,1.542l7.949,8.477,4.035,10.827Z" transform="translate(-158.433 -154.271)"/>
      <g id="Group_39" data-name="Group 39" transform="translate(5.659 94.417)">
        <g id="Group_34" data-name="Group 34">
          <g id="Group_33" data-name="Group 33">
            <g id="Group_32" data-name="Group 32">
              <path id="Path_32" data-name="Path 32" class="cls-15" d="M171.862,289.419l6.081-.763a1.7,1.7,0,0,0,1.193-.629h0a1.228,1.228,0,0,0-.159-1.7h0a1.231,1.231,0,0,0-.783-.294l-5.372.249,6.159-1.462a1.348,1.348,0,0,0,.936-.762h0a1.349,1.349,0,0,0-.728-1.808h0a2.539,2.539,0,0,0-1.559-.108l-5.367,1.4,5.053-2.271a1.288,1.288,0,0,0,.636-.622h0a1.291,1.291,0,0,0-.553-1.694l-.174-.093a1.293,1.293,0,0,0-1.115-.053l-5.87,2.476Z" transform="translate(-163.197 -276.463)"/>
              <path id="Path_33" data-name="Path 33" class="cls-15" d="M170.757,294.462l5.24.492a1.568,1.568,0,0,0,1.185-.375h0a1.132,1.132,0,0,0,.134-1.572h0a1.133,1.133,0,0,0-.661-.395l-4.623-.891Z" transform="translate(-163.317 -279.482)"/>
              <g id="Group_31" data-name="Group 31">
                <path id="Path_34" data-name="Path 34" class="cls-15" d="M165.9,277.96l2.916-2.174a1.77,1.77,0,0,1,.744,3.067l-3.426,2.635-4.409.789C162.484,280.716,164.555,279.063,165.9,277.96Z" transform="translate(-161.223 -275.786)"/>
                <path id="Path_35" data-name="Path 35" class="cls-15" d="M165.892,282.445l3.074-.854L170.2,291.8l-2.3.494c-.162.027-.322.048-.481.063a5.822,5.822,0,0,1-6.171-4.964l-.12-.755a5.015,5.015,0,0,1,.252-2.537h0c.074-.2.156-.4.24-.59Z" transform="translate(-161.071 -277.132)"/>
              </g>
            </g>
          </g>
        </g>
        <g id="Group_38" data-name="Group 38" transform="translate(46.178)">
          <g id="Group_37" data-name="Group 37">
            <g id="Group_36" data-name="Group 36">
              <path id="Path_36" data-name="Path 36" class="cls-15" d="M229.365,289.419l-6.08-.763a1.7,1.7,0,0,1-1.194-.629h0a1.228,1.228,0,0,1,.159-1.7h0a1.231,1.231,0,0,1,.783-.294l5.372.249-6.159-1.462a1.348,1.348,0,0,1-.936-.762h0a1.349,1.349,0,0,1,.729-1.808h0a2.536,2.536,0,0,1,1.558-.108l5.368,1.4-5.053-2.271a1.288,1.288,0,0,1-.636-.622h0a1.293,1.293,0,0,1,.553-1.694l.174-.093a1.293,1.293,0,0,1,1.114-.053l5.87,2.476Z" transform="translate(-221.191 -276.463)"/>
              <path id="Path_37" data-name="Path 37" class="cls-15" d="M231.37,294.462l-5.24.492a1.565,1.565,0,0,1-1.184-.375h0a1.132,1.132,0,0,1-.134-1.572h0a1.133,1.133,0,0,1,.661-.395l4.623-.891Z" transform="translate(-221.971 -279.482)"/>
              <g id="Group_35" data-name="Group 35" transform="translate(7.707)">
                <path id="Path_38" data-name="Path 38" class="cls-15" d="M235.732,277.96l-2.916-2.174a1.77,1.77,0,0,0-.743,3.067l3.426,2.635,4.409.789C239.148,280.716,237.078,279.063,235.732,277.96Z" transform="translate(-231.278 -275.786)"/>
                <path id="Path_39" data-name="Path 39" class="cls-15" d="M235.536,282.445l-3.073-.854-1.237,10.21,2.3.494c.162.027.322.048.481.063a5.822,5.822,0,0,0,6.171-4.964l.121-.755a5.015,5.015,0,0,0-.252-2.537h0c-.074-.2-.157-.4-.24-.59Z" transform="translate(-231.225 -277.132)"/>
              </g>
            </g>
          </g>
        </g>
      </g>
    </g>
  </g>
</svg>
