<svg xmlns="http://www.w3.org/2000/svg" width="66.858" height="125.327" viewBox="0 0 66.858 125.327">
  <defs>
    <style>
      .cls-1 {
        opacity: 0.8;
      }

      .cls-2 {
        fill: #ffd24d;
      }

      .cls-3 {
        fill: #302d2f;
      }

      .cls-15, .cls-4, .cls-8 {
        fill: #919293;
      }

      .cls-15, .cls-4 {
        opacity: 0.7;
        mix-blend-mode: multiply;
        isolation: isolate;
      }

      .cls-5 {
        fill: #edaf77;
      }

      .cls-6 {
        fill: #ffbf94;
      }

      .cls-7 {
        fill: #fff;
      }

      .cls-9 {
        fill: #121010;
      }

      .cls-10 {
        opacity: 0.5;
      }

      .cls-11 {
        fill: #ffabab;
      }

      .cls-12 {
        fill: #e39a88;
      }

      .cls-13 {
        fill: #c97258;
      }

      .cls-14 {
        fill: #ff8c8c;
      }

      .cls-15, .cls-16 {
        fill-rule: evenodd;
      }

      .cls-16 {
        fill: #36912d;
      }
    </style>
  </defs>
  <g id="Group_129" data-name="Group 129" class="cls-1" transform="translate(-264.075 -155.253)">
    <path id="Path_119" data-name="Path 119" class="cls-2" d="M325.667,296.816l-.343.151a62.943,62.943,0,0,1-50.521-.15h0l3.043-43.573h44.777Z" transform="translate(-2.534 -23.141)"/>
    <g id="Group_110" data-name="Group 110" transform="translate(264.075 155.253)">
      <path id="Path_120" data-name="Path 120" class="cls-3" d="M314.029,209.7H284.413a17.731,17.731,0,0,0-9.468,2.751c-.02-.039-.043-.076-.063-.115a26.6,26.6,0,0,1-2.53-15.556l1.641-18.907c2.165-15.894,17.522-29.9,37.613-18.42a10.116,10.116,0,0,1,6.61,2.8c3.873,3.459,5.248,8.906,6.183,15.619l1.641,18.907a26.6,26.6,0,0,1-2.529,15.556c-.016.032-.034.062-.051.093A17.726,17.726,0,0,0,314.029,209.7Z" transform="translate(-265.969 -155.253)"/>
      <path id="Path_121" data-name="Path 121" class="cls-2" d="M321.852,286.339c8.673,0,10.258-12.4,8.373-20.481-1.955-8.386-3.541-23.182-10.271-32.129-6.992-9.3-22.45-6.164-22.45-6.164s-15.458-3.131-22.45,6.164c-6.73,8.947-8.317,23.742-10.271,32.129-1.884,8.082-.3,20.481,8.372,20.481Z" transform="translate(-264.075 -172.21)"/>
      <g id="Group_109" data-name="Group 109" transform="translate(9.103 14.913)">
        <path id="Path_122" data-name="Path 122" class="cls-4" d="M314.967,228.421l-3.239-.619s-11.249-16.706-17.6-1.147c-.251.616-.555,1.514-.555,1.514a12.474,12.474,0,0,0,10.737,5.93C311.169,234.259,314.967,228.421,314.967,228.421Z" transform="translate(-280.143 -185.462)"/>
        <g id="Group_107" data-name="Group 107">
          <g id="Group_106" data-name="Group 106">
            <g id="Group_95" data-name="Group 95">
              <g id="Group_92" data-name="Group 92" transform="translate(0 19.456)">
                <path id="Path_123" data-name="Path 123" class="cls-5" d="M281.165,210.278l1.78,0,.006-10.029-2.884,0a4.072,4.072,0,0,0-3.566,6.041l1.014,1.833A4.174,4.174,0,0,0,281.165,210.278Z" transform="translate(-275.992 -200.248)"/>
                <path id="Path_124" data-name="Path 124" class="cls-5" d="M336,208.157l1.015-1.832a4.072,4.072,0,0,0-3.559-6.046l-2.884,0-.006,10.029h1.781A4.172,4.172,0,0,0,336,208.157Z" transform="translate(-288.88 -200.255)"/>
              </g>
              <path id="Path_125" data-name="Path 125" class="cls-6" d="M321.024,189.646a4.848,4.848,0,0,1-1.312-3.009,6.805,6.805,0,0,0-2.945-5.594,27.737,27.737,0,0,0-10.731-5.568c-9.456-2.434-18.15,1.687-23.828,9.411a1.968,1.968,0,0,1-.135.15l-.009,16.04a19.684,19.684,0,0,0,39.368.024l.006-11.047A2.439,2.439,0,0,1,321.024,189.646Z" transform="translate(-277.426 -174.776)"/>
              <g id="Group_94" data-name="Group 94" transform="translate(10.575 15.288)">
                <g id="Group_93" data-name="Group 93">
                  <path id="Path_126" data-name="Path 126" class="cls-3" d="M296.908,197.392a1.3,1.3,0,1,0-.071-2.594l-.94.1a9.22,9.22,0,0,0-6.06,3.2l.434-.176a9.214,9.214,0,0,1,3.91-.66Z" transform="translate(-289.836 -194.791)"/>
                  <path id="Path_127" data-name="Path 127" class="cls-3" d="M318.89,197.271a9.214,9.214,0,0,1,3.909.665l.434.176a9.225,9.225,0,0,0-6.057-3.2l-.94-.1a1.3,1.3,0,1,0-.074,2.593Z" transform="translate(-295.731 -194.793)"/>
                </g>
                <path id="Path_128" data-name="Path 128" class="cls-5" d="M308.931,214.95l.007,0A1.907,1.907,0,0,0,310,213.017c-.012-.065-.157-.173-.377-.3a5.478,5.478,0,0,0-5.555,0c-.221.129-.365.237-.377.3a1.906,1.906,0,0,0,1.059,1.931A5.061,5.061,0,0,0,308.931,214.95Z" transform="translate(-293.102 -198.845)"/>
              </g>
            </g>
            <g id="Group_105" data-name="Group 105" transform="translate(8.575 19.231)">
              <g id="Group_103" data-name="Group 103" transform="translate(3.339)">
                <g id="Group_102" data-name="Group 102" transform="translate(0.035 0.193)">
                  <g id="Group_101" data-name="Group 101">
                    <g id="Group_100" data-name="Group 100">
                      <g id="Group_97" data-name="Group 97" transform="translate(16.864)">
                        <path id="Path_129" data-name="Path 129" class="cls-7" d="M321.722,204.708s-.06-4.17-4.041-4.162c-3.687.007-3.97,4.452-3.97,4.452A7.4,7.4,0,0,0,321.722,204.708Z" transform="translate(-313.712 -200.286)"/>
                        <g id="Group_96" data-name="Group 96" transform="translate(1.064)">
                          <path id="Path_130" data-name="Path 130" class="cls-8" d="M315.105,203.05a2.838,2.838,0,1,1,2.844,2.833A2.838,2.838,0,0,1,315.105,203.05Z" transform="translate(-315.105 -200.206)"/>
                        </g>
                        <path id="Path_131" data-name="Path 131" class="cls-9" d="M317.282,203.561a1.176,1.176,0,1,1,1.178,1.173A1.176,1.176,0,0,1,317.282,203.561Z" transform="translate(-314.555 -200.72)"/>
                        <path id="Path_132" data-name="Path 132" class="cls-7" d="M316.228,202.275a.726.726,0,1,1,.727.725A.727.727,0,0,1,316.228,202.275Z" transform="translate(-314.306 -200.523)"/>
                      </g>
                      <g id="Group_99" data-name="Group 99" transform="translate(0 0.031)">
                        <path id="Path_133" data-name="Path 133" class="cls-7" d="M291.634,204.766s.044-4.171,4.025-4.178c3.687-.007,3.986,4.437,3.986,4.437A7.4,7.4,0,0,1,291.634,204.766Z" transform="translate(-291.634 -200.327)"/>
                        <g id="Group_98" data-name="Group 98" transform="translate(1.263)">
                          <path id="Path_134" data-name="Path 134" class="cls-8" d="M293.287,203.092a2.839,2.839,0,1,1,2.845,2.833A2.839,2.839,0,0,1,293.287,203.092Z" transform="translate(-293.287 -200.247)"/>
                        </g>
                        <path id="Path_135" data-name="Path 135" class="cls-9" d="M295.464,203.6a1.176,1.176,0,1,1,1.178,1.173A1.176,1.176,0,0,1,295.464,203.6Z" transform="translate(-292.538 -200.761)"/>
                        <path id="Path_136" data-name="Path 136" class="cls-7" d="M294.41,202.317a.726.726,0,1,1,.728.725A.727.727,0,0,1,294.41,202.317Z" transform="translate(-292.29 -200.564)"/>
                      </g>
                    </g>
                  </g>
                </g>
                <path id="Path_137" data-name="Path 137" class="cls-5" d="M321.717,204.568a3.436,3.436,0,0,0,.031-.573,4.694,4.694,0,0,0-.273-1.512,4.039,4.039,0,0,0-.483-.947c-.115-.154-.243-.306-.378-.461a4.389,4.389,0,0,0-.483-.4,3.758,3.758,0,0,0-1.192-.552,5.411,5.411,0,0,0-1.354-.167l-.613.058c-.234.056-.471.11-.7.18a3.665,3.665,0,0,0-1.133.689,3.614,3.614,0,0,0-.759.941,4.122,4.122,0,0,0-.427.959,5.6,5.6,0,0,0-.265,1.5,3.965,3.965,0,0,0,.013.573s.051-.2.167-.54a8.882,8.882,0,0,1,.571-1.332,3.434,3.434,0,0,1,.234-.391,3.145,3.145,0,0,1,.275-.39,3.817,3.817,0,0,1,.707-.7,3.215,3.215,0,0,1,.432-.273c.152-.079.321-.127.477-.2l.482-.118.608-.042c.124,0,.354.017.526.023a3.278,3.278,0,0,1,.538.087,3.523,3.523,0,0,1,.969.37c.15.079.27.2.412.283.122.109.243.218.355.332a4.984,4.984,0,0,1,.541.742,6.608,6.608,0,0,1,.571,1.32C321.676,204.363,321.717,204.568,321.717,204.568Z" transform="translate(-296.808 -199.953)"/>
                <path id="Path_138" data-name="Path 138" class="cls-5" d="M291.623,204.626s.04-.205.145-.545a6.612,6.612,0,0,1,.565-1.322,4.97,4.97,0,0,1,.538-.744c.112-.114.232-.225.354-.334.141-.087.26-.2.41-.284a3.568,3.568,0,0,1,.968-.374,3.366,3.366,0,0,1,.537-.089c.172-.007.4-.027.526-.025l.609.04.483.117c.157.075.325.122.478.2a3.345,3.345,0,0,1,.432.271,3.846,3.846,0,0,1,.71.7,3.169,3.169,0,0,1,.276.39,3.368,3.368,0,0,1,.235.39,8.87,8.87,0,0,1,.577,1.33c.116.338.169.54.169.54a3.96,3.96,0,0,0,.011-.573,5.624,5.624,0,0,0-.271-1.5,4.176,4.176,0,0,0-.43-.958,3.7,3.7,0,0,0-1.9-1.622c-.225-.07-.462-.122-.7-.178l-.612-.055a5.405,5.405,0,0,0-1.354.171,3.759,3.759,0,0,0-1.19.558,4.313,4.313,0,0,0-.481.406c-.134.154-.263.309-.377.462a4.051,4.051,0,0,0-.48.949,4.725,4.725,0,0,0-.267,1.512A3.383,3.383,0,0,0,291.623,204.626Z" transform="translate(-291.589 -199.963)"/>
              </g>
              <g id="Group_104" data-name="Group 104" class="cls-10" transform="translate(0 8.081)">
                <path id="Path_139" data-name="Path 139" class="cls-11" d="M319.746,212.7c0,1.194,1.525,2.159,3.4,2.156s3.4-.975,3.393-2.169-1.525-2.16-3.4-2.156S319.744,211.507,319.746,212.7Z" transform="translate(-294.9 -210.532)"/>
                <path id="Path_140" data-name="Path 140" class="cls-11" d="M287.218,212.763c0,1.195,1.525,2.16,3.4,2.156s3.4-.975,3.393-2.169-1.525-2.16-3.4-2.156S287.216,211.569,287.218,212.763Z" transform="translate(-287.218 -210.547)"/>
              </g>
              <path id="Path_141" data-name="Path 141" class="cls-12" d="M305.888,219.933l.467.133.454-.169a4.187,4.187,0,0,1,1.495-.273,28.666,28.666,0,0,0,3.741-.376,5.641,5.641,0,0,1-5.523,3.793,5.848,5.848,0,0,1-5.905-3.347,28.611,28.611,0,0,0,3.76.082A4.209,4.209,0,0,1,305.888,219.933Z" transform="translate(-290.383 -204.51)"/>
              <path id="Path_142" data-name="Path 142" class="cls-13" d="M312.046,219.249s-.167.1-.462.249-.725.355-1.244.574c-.261.107-.547.212-.849.322s-.629.2-.963.292-.689.154-1.046.218a10.1,10.1,0,0,1-1.09.107l-.559.007-.536-.029c-.36-.037-.717-.075-1.059-.137s-.671-.136-.982-.215-.6-.169-.871-.255c-.535-.177-.982-.338-1.286-.474s-.48-.212-.48-.212a8.24,8.24,0,0,0,1.635,1.012c.262.125.551.251.865.365a9.916,9.916,0,0,0,1.008.306,9.526,9.526,0,0,0,1.115.2l.594.042.581,0a10.481,10.481,0,0,0,1.168-.137,9.738,9.738,0,0,0,1.1-.284,9.929,9.929,0,0,0,.98-.385c.3-.138.583-.286.835-.431A8.249,8.249,0,0,0,312.046,219.249Z" transform="translate(-290.383 -204.51)"/>
            </g>
          </g>
        </g>
        <g id="Group_108" data-name="Group 108" class="cls-10" transform="translate(8.498 27.328)">
          <path id="Path_143" data-name="Path 143" class="cls-14" d="M293.912,212.718c0,1.195-1.522,2.162-3.4,2.161s-3.4-.97-3.4-2.165,1.522-2.162,3.4-2.161S293.913,211.523,293.912,212.718Z" transform="translate(-287.118 -210.553)"/>
          <path id="Path_144" data-name="Path 144" class="cls-14" d="M326.441,212.738c0,1.195-1.522,2.162-3.4,2.161s-3.4-.971-3.4-2.165,1.522-2.162,3.4-2.16S326.442,211.543,326.441,212.738Z" transform="translate(-294.8 -210.558)"/>
        </g>
      </g>
      <path id="Path_145" data-name="Path 145" class="cls-3" d="M311.555,176.265s2.469,1.63,6.389,13.062a3.364,3.364,0,0,0,3.124,2.374l3.832-13.542a29.759,29.759,0,0,0-3.291-8.3c-4.522-7.725-37.537-7.725-42.059,0a29.759,29.759,0,0,0-3.291,8.3L280.09,191.7a3.364,3.364,0,0,0,3.124-2.374C287.135,177.9,311.555,176.265,311.555,176.265Z" transform="translate(-266.952 -157.333)"/>
      <path id="Path_146" data-name="Path 146" class="cls-3" d="M303.128,173.841s-8.724,11.113-14.387,15.274c0,0,20.7-1.337,25.815-12.587S303.128,173.841,303.128,173.841Z" transform="translate(-269.9 -158.906)"/>
    </g>
    <path id="Path_147" data-name="Path 147" class="cls-15" d="M285.258,270.908a8.069,8.069,0,0,1-5.979-2.77l-.051,14.461,14.46.05a8.073,8.073,0,0,0-2.77,5.979c-.017,4.714,4.248,8.55,9.524,8.569s9.567-3.787,9.584-8.5a8.069,8.069,0,0,0-2.727-6l14.46.051.051-14.46a8.07,8.07,0,0,1-6,2.727c-4.714-.017-8.519-4.308-8.5-9.584s3.855-9.54,8.569-9.524a8.069,8.069,0,0,1,5.979,2.77l.051-14.46-14.46-.051h0a8.073,8.073,0,0,0,2.77-5.979c.017-4.714-4.248-8.55-9.524-8.569s-9.567,3.787-9.584,8.5a8.071,8.071,0,0,0,2.727,6h0l-14.46-.052-.051,14.461a8.073,8.073,0,0,1,6-2.728c4.713.017,8.519,4.308,8.5,9.584S289.971,270.925,285.258,270.908Z" transform="translate(-3.579 -16.618)"/>
    <path id="Path_148" data-name="Path 148" class="cls-16" d="M284.478,268.885a8.069,8.069,0,0,1-5.979-2.77l-.051,14.46,14.46.052a8.07,8.07,0,0,0-2.77,5.978c-.017,4.714,4.247,8.55,9.524,8.569s9.567-3.787,9.584-8.5a8.068,8.068,0,0,0-2.727-6l14.46.051.051-14.46a8.07,8.07,0,0,1-6,2.727c-4.714-.017-8.519-4.308-8.5-9.584s3.855-9.54,8.569-9.524a8.069,8.069,0,0,1,5.979,2.77l.051-14.46-14.46-.051h0a8.073,8.073,0,0,0,2.77-5.979c.016-4.714-4.247-8.55-9.524-8.569s-9.567,3.787-9.584,8.5a8.068,8.068,0,0,0,2.727,6h0l-14.46-.051-.051,14.461a8.073,8.073,0,0,1,6-2.728c4.714.017,8.52,4.308,8.5,9.584S289.191,268.9,284.478,268.885Z" transform="translate(-3.394 -16.14)"/>
    <g id="Group_119" data-name="Group 119" transform="translate(268.975 252.478)">
      <g id="Group_114" data-name="Group 114">
        <g id="Group_113" data-name="Group 113">
          <g id="Group_112" data-name="Group 112">
            <path id="Path_149" data-name="Path 149" class="cls-6" d="M281.272,296.111l6.047-.759a1.688,1.688,0,0,0,1.186-.626h0a1.221,1.221,0,0,0-.158-1.695h0a1.224,1.224,0,0,0-.778-.293l-5.342.247,6.124-1.454a1.339,1.339,0,0,0,.93-.758h0a1.341,1.341,0,0,0-.724-1.8h0a2.53,2.53,0,0,0-1.551-.108l-5.338,1.393L286.693,288a1.283,1.283,0,0,0,.632-.618h0a1.284,1.284,0,0,0-.55-1.684l-.173-.093a1.284,1.284,0,0,0-1.108-.053l-5.839,2.463Z" transform="translate(-272.655 -283.226)"/>
            <path id="Path_150" data-name="Path 150" class="cls-6" d="M280.176,301.2l5.212.489a1.558,1.558,0,0,0,1.178-.373h0a1.125,1.125,0,0,0,.133-1.563h0a1.125,1.125,0,0,0-.658-.393l-4.6-.886Z" transform="translate(-272.777 -286.3)"/>
            <g id="Group_111" data-name="Group 111">
              <path id="Path_151" data-name="Path 151" class="cls-6" d="M275.3,284.7l2.9-2.162a1.759,1.759,0,0,1,.739,3.05l-3.407,2.621-4.384.784C271.9,287.44,273.958,285.8,275.3,284.7Z" transform="translate(-270.644 -282.537)"/>
              <path id="Path_152" data-name="Path 152" class="cls-6" d="M275.285,289.191l3.057-.849,1.231,10.154-2.286.491c-.16.027-.32.047-.477.063a5.789,5.789,0,0,1-6.137-4.937l-.12-.751a4.988,4.988,0,0,1,.251-2.523h0c.073-.2.155-.393.238-.587Z" transform="translate(-270.49 -283.908)"/>
            </g>
          </g>
        </g>
      </g>
      <g id="Group_118" data-name="Group 118" transform="translate(38.093)">
        <g id="Group_117" data-name="Group 117">
          <g id="Group_116" data-name="Group 116">
            <path id="Path_153" data-name="Path 153" class="cls-6" d="M328.489,296.111l-6.047-.759a1.69,1.69,0,0,1-1.187-.626h0a1.222,1.222,0,0,1,.159-1.695h0a1.222,1.222,0,0,1,.778-.293l5.342.247-6.124-1.454a1.342,1.342,0,0,1-.931-.758h0a1.342,1.342,0,0,1,.725-1.8h0a2.53,2.53,0,0,1,1.551-.108l5.338,1.393L323.068,288a1.284,1.284,0,0,1-.633-.618h0a1.285,1.285,0,0,1,.551-1.684l.172-.093a1.285,1.285,0,0,1,1.108-.053l5.839,2.463Z" transform="translate(-320.36 -283.226)"/>
            <path id="Path_154" data-name="Path 154" class="cls-6" d="M330.5,301.2l-5.211.489a1.558,1.558,0,0,1-1.178-.373h0a1.125,1.125,0,0,1-.133-1.563h0a1.123,1.123,0,0,1,.658-.393l4.6-.886Z" transform="translate(-321.155 -286.3)"/>
            <g id="Group_115" data-name="Group 115" transform="translate(7.664)">
              <path id="Path_155" data-name="Path 155" class="cls-6" d="M334.877,284.7l-2.9-2.162a1.759,1.759,0,0,0-.739,3.05l3.406,2.621,4.385.784C338.276,287.44,336.216,285.8,334.877,284.7Z" transform="translate(-330.448 -282.537)"/>
              <path id="Path_156" data-name="Path 156" class="cls-6" d="M334.681,289.191l-3.057-.849L330.394,298.5l2.286.491c.16.027.32.047.477.063a5.789,5.789,0,0,0,6.137-4.937l.12-.751a4.987,4.987,0,0,0-.251-2.523h0c-.074-.2-.155-.393-.238-.587Z" transform="translate(-330.394 -283.908)"/>
            </g>
          </g>
        </g>
      </g>
    </g>
  </g>
</svg>
