<svg xmlns="http://www.w3.org/2000/svg" xmlns:xlink="http://www.w3.org/1999/xlink" width="399.402" height="281.989" viewBox="0 0 399.402 281.989">
  <defs>
    <linearGradient id="linear-gradient" x1="-37.728" y1="1.597" x2="-37.728" y2="0.591" gradientUnits="objectBoundingBox">
      <stop offset="0" stop-color="#834a21"/>
      <stop offset="1" stop-color="#bc6637"/>
    </linearGradient>
    <clipPath id="clip-path">
      <path id="Path_196" data-name="Path 196" d="M168.95,265.64c7.412,15.706,31.063,68.706,25.917,126.766,0,0,1.284,3.652,6.825,4.028,6.208.421,8.294-2.147,8.294-2.147a252.3,252.3,0,0,0-38.651-134.754" fill="none"/>
    </clipPath>
    <linearGradient id="linear-gradient-2" x1="-34.046" y1="1.492" x2="-34.046" y2="0.486" xlink:href="#linear-gradient"/>
    <clipPath id="clip-path-2">
      <path id="Path_251" data-name="Path 251" d="M333.005,233.215c-9.249,19.6-38.761,85.733-32.34,158.181,0,0-1.6,4.557-8.517,5.026-7.746.526-10.349-2.679-10.349-2.679A314.816,314.816,0,0,1,330.028,225.6" fill="none"/>
    </clipPath>
    <clipPath id="clip-path-3">
      <circle id="Ellipse_3" data-name="Ellipse 3" cx="19.129" cy="19.129" r="19.129" transform="matrix(0.931, -0.366, 0.366, 0.931, 296.962, 388.653)" fill="none"/>
    </clipPath>
  </defs>
  <g id="OBJECT" transform="translate(-18.192 -183)">
    <g id="Group_138" data-name="Group 138">
      <path id="Path_171" data-name="Path 171" d="M378.7,438.382c16.858,12.42-18.976,15.783-38.133,15.08-22.7-.712-28.554,11.176-51.266,9.749-9.93-.7-53.032-2.3-64.388-2.3-12.771,0-36.005,2.661-50.723,4.077-11.356-.713-26.256-6.918-19.519-17.38-9.929-1.426-14.006,0-22.35.532-16.283,1.033-65.612,6.684-36.845-16.188a168.961,168.961,0,0,1,23.286-15.017c33.546-18.4,82.46-35.5,112.185-36.024,27.671,0,57.822,1.776,84.078,11.706,15.432,5.578,32.407,11.547,50.52,16.368a304.746,304.746,0,0,0,36.931,7.578C438.665,421.534,401.415,439.094,378.7,438.382Z" fill="#efae32"/>
      <path id="Path_172" data-name="Path 172" d="M354.939,433.242c-4.97,6.736-34.77,3.192-57.822,7.45-19.541,3.607-39.027-4.971-58.9-2.129-16.315,1.415-39.729,11.706-55.342,5.322-6.386-2.842,5.322-11.357-1.766-14.2-11.356-4.96-25.192-1.415-35.122-2.129-9.355-.511-26.553-2.756-27.224-10.622,33.546-18.4,82.46-35.5,112.185-36.024,27.671,0,57.822,1.776,84.078,11.706,15.432,5.578,32.407,11.547,50.52,16.368-4.4,3.736-13.132,2.608-16.282,2.608C353.523,413.723,359.909,426.505,354.939,433.242Z" fill="#f8d057"/>
    </g>
    <g id="Group_151" data-name="Group 151">
      <g id="Group_142" data-name="Group 142">
        <path id="Path_173" data-name="Path 173" d="M168.95,265.64c7.412,15.706,31.063,68.706,25.917,126.766,0,0,1.284,3.652,6.825,4.028,6.208.421,8.294-2.147,8.294-2.147a252.3,252.3,0,0,0-38.651-134.754" fill="url(#linear-gradient)"/>
        <g id="Group_141" data-name="Group 141">
          <g id="Group_140" data-name="Group 140" clip-path="url(#clip-path)">
            <g id="Group_139" data-name="Group 139">
              <path id="Path_174" data-name="Path 174" d="M215.113,383.118a20.52,20.52,0,0,1-13.247,5.842c7.207,3.323,12.493.168,18.132-2.371" fill="#2d1309" opacity="0.25"/>
              <path id="Path_175" data-name="Path 175" d="M191.726,376.21a29.809,29.809,0,0,1,3.75,2.634,21.537,21.537,0,0,0,7.792,3.545,30.51,30.51,0,0,1-16.794-3.223" fill="#2d1309" opacity="0.25"/>
              <path id="Path_176" data-name="Path 176" d="M216.355,371.182a36.7,36.7,0,0,1-17.078,5.862,13.7,13.7,0,0,0,3.853.73,29.118,29.118,0,0,0,16.506-3.842" fill="#2d1309" opacity="0.25"/>
              <path id="Path_177" data-name="Path 177" d="M212.778,364.164a27.494,27.494,0,0,1-19.7,3.334,2.272,2.272,0,0,0,1.538.957A29.429,29.429,0,0,0,216.7,365.7" fill="#2d1309" opacity="0.25"/>
              <path id="Path_178" data-name="Path 178" d="M190.835,357.345a13.511,13.511,0,0,0,6.486,2.5,40.423,40.423,0,0,0,7.02.132,13.875,13.875,0,0,1-8.25,1.541,35.665,35.665,0,0,1-8.255-2.063" fill="#2d1309" opacity="0.25"/>
              <path id="Path_179" data-name="Path 179" d="M212.689,350.573a25.221,25.221,0,0,1-15.106,4.849c-.476-.006-1.037.016-1.3.411a10.383,10.383,0,0,0,3.951.7,29.05,29.05,0,0,0,12.757-2.648" fill="#2d1309" opacity="0.25"/>
              <path id="Path_180" data-name="Path 180" d="M208.255,344.866a17.057,17.057,0,0,1-10.437,2.864c2.8-.446,5.243-2.111,7.5-3.833,2.042-1.56,4.178-3.492,4.386-6.053" fill="#2d1309" opacity="0.25"/>
              <path id="Path_181" data-name="Path 181" d="M191.119,348.092a6.913,6.913,0,0,0,4.276,1.479c1.535.1,4.6.255,4.6.255s-4.956,3.034-12.188.62" fill="#2d1309" opacity="0.25"/>
              <path id="Path_182" data-name="Path 182" d="M206.043,338.624a14.793,14.793,0,0,1-9.815,3.266c4.226-1.74,8.616-3.933,10.883-7.9" fill="#2d1309" opacity="0.25"/>
              <path id="Path_183" data-name="Path 183" d="M188.4,334.076a14.967,14.967,0,0,0,10.012,2.023,18.072,18.072,0,0,1-14.419.881" fill="#2d1309" opacity="0.25"/>
              <path id="Path_184" data-name="Path 184" d="M189.017,328.749c2.423,2.233,7.6,1.92,7.407,2a16.388,16.388,0,0,1-10.687.831" fill="#2d1309" opacity="0.25"/>
              <path id="Path_185" data-name="Path 185" d="M185.632,320.888a12.513,12.513,0,0,0,4.674,2.5l3.991,1.451a12.386,12.386,0,0,1-7.6-1.055" fill="#2d1309" opacity="0.25"/>
              <path id="Path_186" data-name="Path 186" d="M202.625,322.421c-2.01,2.347-5.262,3.112-8.286,3.748,3.253.867,6.648-.44,9.76-1.725" fill="#2d1309" opacity="0.25"/>
              <path id="Path_187" data-name="Path 187" d="M203.481,314.912a13.7,13.7,0,0,1-11.613,5.057,18.516,18.516,0,0,0,8.746-6.271" fill="#2d1309" opacity="0.25"/>
              <path id="Path_188" data-name="Path 188" d="M198.776,306.648a12.846,12.846,0,0,1-8.2,3.832,12.52,12.52,0,0,0,6.689-7.281" fill="#2d1309" opacity="0.25"/>
              <path id="Path_189" data-name="Path 189" d="M194.132,298.636a15.839,15.839,0,0,1-5.83,2.726,13.3,13.3,0,0,0,4.359-5.7" fill="#2d1309" opacity="0.25"/>
              <path id="Path_190" data-name="Path 190" d="M179.813,304.054c3.088,1.6,6.74,1.536,10.218,1.431a15.831,15.831,0,0,1-12.146,1.427" fill="#2d1309" opacity="0.25"/>
              <path id="Path_191" data-name="Path 191" d="M181.381,313.206a28,28,0,0,0,14.937.938,21.08,21.08,0,0,1-17.533.959" fill="#2d1309" opacity="0.25"/>
              <path id="Path_192" data-name="Path 192" d="M179.233,293.737a27.9,27.9,0,0,0,10.792,1.917,14.606,14.606,0,0,1-7.492,1.951,26.293,26.293,0,0,1-7.7-1.275" fill="#2d1309" opacity="0.25"/>
              <path id="Path_193" data-name="Path 193" d="M191.352,288.332a10,10,0,0,1-4.657,2.821,19.266,19.266,0,0,1-5.454.681,15.6,15.6,0,0,0,6.9-3.115c1.242-.9,2.506-2.042,2.7-3.563" fill="#2d1309" opacity="0.25"/>
              <path id="Path_194" data-name="Path 194" d="M176.256,287.545a16.918,16.918,0,0,0,7.958-1.552,12.214,12.214,0,0,1-11.073,2.649" fill="#2d1309" opacity="0.25"/>
            </g>
            <path id="Path_195" data-name="Path 195" d="M184.092,277.95c-.651,1.281-2.979.6-2.979.6s.763,6.485-5.738,8.125a2.155,2.155,0,0,1-1.417-.134,2.932,2.932,0,0,1-1.367-2.4,14.916,14.916,0,0,1,.215-4.338,26.238,26.238,0,0,1,1.758-6.357,8.594,8.594,0,0,1,1.411-2.325,8.259,8.259,0,0,1,6.314-2.3,10.229,10.229,0,0,1,5.027,1.25,6.4,6.4,0,0,1,3.1,4.034" fill="#2d1309" opacity="0.25"/>
          </g>
        </g>
      </g>
      <g id="Group_143" data-name="Group 143">
        <path id="Path_197" data-name="Path 197" d="M172.33,272.035a78.1,78.1,0,0,1,22.265-4.357c9.774-.511,37.406,8.872,31.824-7.179C219.116,239.5,172.973,257.6,172.33,272.035Z" fill="#1ca32f"/>
        <path id="Path_198" data-name="Path 198" d="M172.327,272.034a78.173,78.173,0,0,1,22.265-4.357c9.279-.486,34.646,7.946,32.424-4.934.11,2.09-.711,3.57-3.662,3.886-2.622.28-8.242-2.891-10.207-.016-1.76,2.573-8.493-1.57-13.49-2.172-3.586-.432-3.69,1.64-4.865,1.861-5.2.978-8.934-.885-12.578-.049C175.749,267.738,172.368,271.133,172.327,272.034Z" fill="#2f963e" opacity="0.5" style="mix-blend-mode: multiply;isolation: isolate"/>
        <path id="Path_199" data-name="Path 199" d="M216.858,254.972c12.774,9.739-18.62,5.41-22.446,5.674-4.707.428-10.8.67-15.116,3.354C184.728,258.7,210.58,250.186,216.858,254.972Z" fill="#227730" opacity="0.3" style="mix-blend-mode: screen;isolation: isolate"/>
      </g>
      <g id="Group_144" data-name="Group 144">
        <path id="Path_200" data-name="Path 200" d="M172.574,272.3a65.974,65.974,0,0,0-19.183-.323c-8.214,1.025-29.826,12.937-27.559-1.254C128.795,252.161,169.9,260.378,172.574,272.3Z" fill="#1ca32f"/>
        <path id="Path_201" data-name="Path 201" d="M172.576,272.3a66.153,66.153,0,0,0-19.183-.323c-7.8.972-27.664,11.756-27.726.705.218,1.756,1.122,2.867,3.625,2.691,2.225-.156,6.432-3.63,8.5-1.528,1.846,1.882,6.838-2.567,10.908-3.811,2.922-.89,3.315.818,4.327.828,4.475.042,7.306-2.063,10.463-1.908C169.09,269.232,172.408,271.556,172.576,272.3Z" fill="#2f963e" opacity="0.5" style="mix-blend-mode: multiply;isolation: isolate"/>
        <path id="Path_202" data-name="Path 202" d="M132.971,264.7c-9.189,10,16.3,1.742,19.527,1.393,3.984-.343,9.092-1.045,13.083.549C160.274,263.043,137.486,259.789,132.971,264.7Z" fill="#227730" opacity="0.3" style="mix-blend-mode: screen;isolation: isolate"/>
      </g>
      <g id="Group_145" data-name="Group 145">
        <path id="Path_203" data-name="Path 203" d="M173.943,271.909a71.3,71.3,0,0,1,8.956-18.692c4.959-7.442,26.912-22.57,12.1-27.236C175.633,219.874,163.715,263.559,173.943,271.909Z" fill="#1ca32f"/>
        <path id="Path_204" data-name="Path 204" d="M173.94,271.911a71.441,71.441,0,0,1,8.956-18.693c4.707-7.065,24.727-21.051,14.078-26.451,1.591,1.059,2.228,2.469.849,4.8-1.227,2.075-6.616,4.461-5.582,7.471.927,2.694-5.784,5.367-8.952,8.7-2.273,2.394-.813,3.6-1.291,4.582-2.122,4.345-5.524,6.063-6.9,9.189C172.66,267.06,173.3,271.389,173.94,271.911Z" fill="#2f963e" opacity="0.5" style="mix-blend-mode: multiply;isolation: isolate"/>
        <path id="Path_205" data-name="Path 205" d="M185.735,229.97c14.108-4.046-6.194,16.6-8.088,19.542-2.256,3.684-5.4,8.28-5.792,12.908C170.938,255.55,178.8,231.958,185.735,229.97Z" fill="#227730" opacity="0.3" style="mix-blend-mode: screen;isolation: isolate"/>
      </g>
      <g id="Group_146" data-name="Group 146">
        <path id="Path_206" data-name="Path 206" d="M171.616,271a80.76,80.76,0,0,0-13.668-14.019c-6.667-5.423-30.658-15.107-19.084-20.532C154,229.355,178.021,263.133,171.616,271Z" fill="#1ca32f"/>
        <path id="Path_207" data-name="Path 207" d="M171.619,271a80.943,80.943,0,0,0-13.668-14.018c-6.329-5.149-28.266-14.134-20.576-19.678-1.071,1.031-1.194,2.237.742,3.958,1.721,1.529,7.2,2.839,7.223,5.377.02,2.27,6.75,3.661,10.568,5.983,2.739,1.668,1.829,2.8,2.555,3.538,3.212,3.254,6.735,4.251,8.914,6.609C171.241,266.958,172.018,270.512,171.619,271Z" fill="#2f963e" opacity="0.5" style="mix-blend-mode: multiply;isolation: isolate"/>
        <path id="Path_208" data-name="Path 208" d="M148.249,238.613c-13.658-1.66,10.59,12.644,13.169,14.8,3.125,2.707,7.316,6.048,9.092,9.725C169.188,257.51,154.96,239.429,148.249,238.613Z" fill="#227730" opacity="0.3" style="mix-blend-mode: screen;isolation: isolate"/>
      </g>
      <g id="Group_147" data-name="Group 147">
        <path id="Path_209" data-name="Path 209" d="M172.148,272.408c-4.755,4.622-11.045,9.163-15.65,16.681-4.972,8.117-5.29,13.34-8.538,19.846-2.951,5.909-8.688,10.409-13.809,8.635-12.983-4.494-6.9-19.4-1.641-27.068C141.28,277.722,163.887,268.753,172.148,272.408Z" fill="#1ca32f"/>
        <path id="Path_210" data-name="Path 210" d="M141.445,285.422c-4.617,3.868-11.619,10.05-9.82,16.893,1.48,6.048,4.947,5.4,8.259,1.182,4.251-5.586,4.929-12.894,10.067-18.306,4.437-4.6,10.34-7.758,15.717-10.992C165.668,274.2,149.866,278.367,141.445,285.422Z" fill="#227730" opacity="0.3" style="mix-blend-mode: screen;isolation: isolate"/>
        <path id="Path_211" data-name="Path 211" d="M126.538,309.023c3.119,6.7,9.252,8.625,11.953,3.841.108-.192.266-.406.4-.669.917-1.891,1.8-5.638,3.354-6.205,2.029-.739,4.4-.9,4.983-3.7.833-3.995-.1-11.747,3.618-11.453.8.063,1.134,1.188,1.47,1.379,1.438.844,2.257-2.3,2.706-4.489v-.007c.157-.727.266-1.349.34-1.685.969-4.2,3.157-3.994,5.956-5.723,3.974-2.456,10.6-8.006,10.832-7.9-2.765,2.688-6.046,5.35-9.215,8.579a45.465,45.465,0,0,0-6.431,8.1c-4.972,8.117-5.29,13.341-8.54,19.846-2.4,4.81-6.643,8.685-10.9,9.007a7.13,7.13,0,0,1-2.909-.372C129.266,315.885,127.083,312.718,126.538,309.023Z" fill="#2f963e" opacity="0.5" style="mix-blend-mode: multiply;isolation: isolate"/>
      </g>
      <g id="Group_148" data-name="Group 148">
        <path id="Path_212" data-name="Path 212" d="M180.271,279.815a6.313,6.313,0,0,0-.467-4.951c-2-3.125-5.757-5.211-9.505-4.4a6.39,6.39,0,0,0-5.049,5.368,11.161,11.161,0,0,0,1.52,8.368c1.7,2.365,4.986,3.693,7.669,2.564a8.391,8.391,0,0,0,2.475-1.745A11.645,11.645,0,0,0,180.271,279.815Z" fill="#702e0f"/>
        <path id="Path_213" data-name="Path 213" d="M170.3,270.465c3.748-.812,7.509,1.274,9.505,4.4a4.7,4.7,0,0,1,.631,1.63,4.435,4.435,0,0,0-.441-.941c-2-3.125-5.758-5.21-9.505-4.4a6.39,6.39,0,0,0-5.05,5.367,13.069,13.069,0,0,0,.1,5.135,12.672,12.672,0,0,1-.289-5.824A6.39,6.39,0,0,1,170.3,270.465Z" fill="#93492c" opacity="0.55"/>
        <path id="Path_214" data-name="Path 214" d="M168.206,275.407c-.327.391-1.112.555-1.3-.069a1.073,1.073,0,0,1,.75-1.156C168.473,273.942,168.613,274.921,168.206,275.407Z" fill="#873f1b"/>
        <path id="Path_215" data-name="Path 215" d="M170.159,273.806c-.509,0-1.142-.49-.789-1.039a1.073,1.073,0,0,1,1.367-.175C171.45,273.062,170.793,273.8,170.159,273.806Z" fill="#873f1b"/>
        <path id="Path_216" data-name="Path 216" d="M169.36,275.992c-.345-.434-.324-1.327.411-1.416.55-.067,1.049.547,1.077,1.044C170.9,276.566,169.789,276.531,169.36,275.992Z" fill="#873f1b"/>
        <path id="Path_217" data-name="Path 217" d="M177.116,282.5a8.165,8.165,0,0,0,.7-4.456,12.209,12.209,0,0,1-2.045-.466,7.839,7.839,0,0,1-3.6-2.323,2.818,2.818,0,0,1-.713-1.445,2.319,2.319,0,0,1,.749-1.86,4.623,4.623,0,0,1,1.57-.944c-.194-.2-.387-.408-.6-.617a9.871,9.871,0,0,1,6.632,4.477,6.313,6.313,0,0,1,.467,4.951,11.645,11.645,0,0,1-3.357,5.2,8.391,8.391,0,0,1-2.475,1.745c-2.683,1.129-5.972-.2-7.669-2.564a19.269,19.269,0,0,0,2.26,1.137C171.316,286.266,175.334,286.657,177.116,282.5Z" fill="#2d1309" opacity="0.25"/>
      </g>
      <g id="Group_149" data-name="Group 149">
        <path id="Path_218" data-name="Path 218" d="M160.384,268.893a6.317,6.317,0,0,1,3.44-3.592c3.5-1.209,7.748-.509,10.182,2.454a6.393,6.393,0,0,1,.625,7.344,11.164,11.164,0,0,1-6.387,5.615c-2.8.8-6.2-.2-7.6-2.752a8.388,8.388,0,0,1-.856-2.9A11.637,11.637,0,0,1,160.384,268.893Z" fill="#702e0f"/>
        <path id="Path_219" data-name="Path 219" d="M160.384,268.893a7.564,7.564,0,0,1,1.7-2.5c-.065.134-.132.268-.189.4a11.649,11.649,0,0,0-.6,6.165c.141,1.005,8.3-8.653,8.791-7.764-3.387,4.128-4.705,6.878-5.388,9.529a2.959,2.959,0,0,0,1.9,3.536,5.539,5.539,0,0,0,3.162.355,9.814,9.814,0,0,0,4.6-3.062,10.922,10.922,0,0,1-6.115,5.158c-2.8.8-6.2-.2-7.6-2.752a8.388,8.388,0,0,1-.856-2.9A11.637,11.637,0,0,1,160.384,268.893Z" fill="#2d1309" opacity="0.35"/>
        <path id="Path_220" data-name="Path 220" d="M172.578,272.929c.014.509.527,1.126,1.064.755a1.072,1.072,0,0,0,.13-1.372C173.279,271.615,172.561,272.3,172.578,272.929Z" fill="#873f1b"/>
        <path id="Path_221" data-name="Path 221" d="M172.041,270.461c.4.319,1.2.326,1.264-.324.048-.487-.515-.947-.963-.986C171.491,269.077,171.547,270.065,172.041,270.461Z" fill="#873f1b"/>
        <path id="Path_222" data-name="Path 222" d="M171.311,272.671c.54-.126,1.078-.838.557-1.365a1.12,1.12,0,0,0-1.493.15C169.746,272.164,170.639,272.827,171.311,272.671Z" fill="#873f1b"/>
      </g>
      <g id="Group_150" data-name="Group 150">
        <path id="Path_223" data-name="Path 223" d="M181.693,262.788a6.314,6.314,0,0,0-4.676-1.692c-3.678.47-7.17,2.98-8.036,6.716a6.39,6.39,0,0,0,2.7,6.858,11.164,11.164,0,0,0,8.216,2.2c2.863-.525,5.469-2.931,5.593-5.84a8.383,8.383,0,0,0-.52-2.982A11.647,11.647,0,0,0,181.693,262.788Z" fill="#7f3014"/>
        <path id="Path_224" data-name="Path 224" d="M168.981,267.812c.866-3.736,4.358-6.246,8.036-6.716a4.71,4.71,0,0,1,1.744.125,4.456,4.456,0,0,0-1.039,0c-3.678.471-7.17,2.981-8.037,6.716a6.393,6.393,0,0,0,2.7,6.859,13.092,13.092,0,0,0,4.685,2.1,12.689,12.689,0,0,1-5.389-2.226A6.39,6.39,0,0,1,168.981,267.812Z" fill="#9b3e1e" opacity="0.59"/>
        <path id="Path_225" data-name="Path 225" d="M172.556,271.815c.213.463.027,1.243-.62,1.148a1.072,1.072,0,0,1-.724-1.171C171.345,270.948,172.29,271.24,172.556,271.815Z" fill="#9b3e1e"/>
        <path id="Path_226" data-name="Path 226" d="M171.942,269.365c-.215.462-.931.824-1.277.27a1.072,1.072,0,0,1,.426-1.31C171.821,267.881,172.209,268.791,171.942,269.365Z" fill="#9b3e1e"/>
        <path id="Path_227" data-name="Path 227" d="M173.577,271.022c-.54.126-1.338-.274-1.1-.977a1.121,1.121,0,0,1,1.4-.528C174.755,269.873,174.248,270.864,173.577,271.022Z" fill="#9b3e1e"/>
      </g>
    </g>
    <g id="Group_164" data-name="Group 164">
      <g id="Group_155" data-name="Group 155">
        <path id="Path_228" data-name="Path 228" d="M333.005,233.215c-9.249,19.6-38.761,85.733-32.34,158.181,0,0-1.6,4.557-8.517,5.026-7.746.526-10.349-2.679-10.349-2.679A314.816,314.816,0,0,1,330.028,225.6" fill="url(#linear-gradient-2)"/>
        <g id="Group_154" data-name="Group 154">
          <g id="Group_153" data-name="Group 153" clip-path="url(#clip-path-2)">
            <g id="Group_152" data-name="Group 152">
              <path id="Path_229" data-name="Path 229" d="M275.4,379.806a25.613,25.613,0,0,0,16.531,7.291c-8.994,4.146-15.59.208-22.626-2.96" fill="#2d1309" opacity="0.25"/>
              <path id="Path_230" data-name="Path 230" d="M304.584,371.187a37.232,37.232,0,0,0-4.679,3.286,26.859,26.859,0,0,1-9.724,4.424,38.062,38.062,0,0,0,20.956-4.022" fill="#2d1309" opacity="0.25"/>
              <path id="Path_231" data-name="Path 231" d="M273.852,364.912a45.769,45.769,0,0,0,21.309,7.315,17.08,17.08,0,0,1-4.807.912,36.338,36.338,0,0,1-20.6-4.8" fill="#2d1309" opacity="0.25"/>
              <path id="Path_232" data-name="Path 232" d="M278.314,356.156a34.322,34.322,0,0,0,24.583,4.16,2.837,2.837,0,0,1-1.919,1.194,36.719,36.719,0,0,1-27.553-3.443" fill="#2d1309" opacity="0.25"/>
              <path id="Path_233" data-name="Path 233" d="M305.7,347.646a16.854,16.854,0,0,1-8.093,3.117,50.331,50.331,0,0,1-8.76.165,17.319,17.319,0,0,0,10.3,1.923,44.435,44.435,0,0,0,10.3-2.575" fill="#2d1309" opacity="0.25"/>
              <path id="Path_234" data-name="Path 234" d="M278.426,339.2a31.477,31.477,0,0,0,18.85,6.051c.594-.008,1.294.02,1.625.512a12.941,12.941,0,0,1-4.93.877,36.238,36.238,0,0,1-15.917-3.3" fill="#2d1309" opacity="0.25"/>
              <path id="Path_235" data-name="Path 235" d="M283.958,332.075a21.292,21.292,0,0,0,13.025,3.574c-3.5-.557-6.543-2.634-9.357-4.783-2.548-1.947-5.213-4.357-5.473-7.553" fill="#2d1309" opacity="0.25"/>
              <path id="Path_236" data-name="Path 236" d="M305.342,336.1a8.631,8.631,0,0,1-5.336,1.846c-1.916.12-5.744.318-5.744.318s6.184,3.786,15.208.774" fill="#2d1309" opacity="0.25"/>
              <path id="Path_237" data-name="Path 237" d="M286.719,324.286a18.456,18.456,0,0,0,12.247,4.075c-5.272-2.17-10.751-4.907-13.58-9.857" fill="#2d1309" opacity="0.25"/>
              <path id="Path_238" data-name="Path 238" d="M308.732,318.611a18.675,18.675,0,0,1-12.493,2.524,22.544,22.544,0,0,0,17.992,1.1" fill="#2d1309" opacity="0.25"/>
              <path id="Path_239" data-name="Path 239" d="M307.965,311.964c-3.024,2.787-9.481,2.4-9.243,2.5a20.447,20.447,0,0,0,13.335,1.038" fill="#2d1309" opacity="0.25"/>
              <path id="Path_240" data-name="Path 240" d="M312.189,302.154a15.62,15.62,0,0,1-5.834,3.122l-4.979,1.809a15.445,15.445,0,0,0,9.481-1.316" fill="#2d1309" opacity="0.25"/>
              <path id="Path_241" data-name="Path 241" d="M290.984,304.067c2.508,2.929,6.566,3.884,10.34,4.677-4.06,1.082-8.3-.549-12.179-2.152" fill="#2d1309" opacity="0.25"/>
              <path id="Path_242" data-name="Path 242" d="M289.917,294.7a17.089,17.089,0,0,0,14.49,6.311,23.11,23.11,0,0,1-10.913-7.825" fill="#2d1309" opacity="0.25"/>
              <path id="Path_243" data-name="Path 243" d="M295.788,284.386a16.018,16.018,0,0,0,10.224,4.781,15.627,15.627,0,0,1-8.346-9.085" fill="#2d1309" opacity="0.25"/>
              <path id="Path_244" data-name="Path 244" d="M301.581,274.388a19.745,19.745,0,0,0,7.276,3.4,16.6,16.6,0,0,1-5.44-7.118" fill="#2d1309" opacity="0.25"/>
              <path id="Path_245" data-name="Path 245" d="M319.449,281.149c-3.853,2-8.41,1.916-12.75,1.786a19.758,19.758,0,0,0,15.157,1.78" fill="#2d1309" opacity="0.25"/>
              <path id="Path_246" data-name="Path 246" d="M317.493,292.568a34.935,34.935,0,0,1-18.639,1.172,26.313,26.313,0,0,0,21.879,1.2" fill="#2d1309" opacity="0.25"/>
              <path id="Path_247" data-name="Path 247" d="M320.173,268.275a34.807,34.807,0,0,1-13.466,2.392,18.235,18.235,0,0,0,9.348,2.435,32.84,32.84,0,0,0,9.612-1.591" fill="#2d1309" opacity="0.25"/>
              <path id="Path_248" data-name="Path 248" d="M305.051,261.531a12.487,12.487,0,0,0,5.811,3.52,24.031,24.031,0,0,0,6.806.85,19.482,19.482,0,0,1-8.615-3.888c-1.55-1.124-3.127-2.547-3.366-4.446" fill="#2d1309" opacity="0.25"/>
              <path id="Path_249" data-name="Path 249" d="M323.887,260.548a21.1,21.1,0,0,1-9.93-1.936,15.245,15.245,0,0,0,13.818,3.306" fill="#2d1309" opacity="0.25"/>
            </g>
            <path id="Path_250" data-name="Path 250" d="M314.11,248.575c.813,1.6,3.717.754,3.717.754s-.952,8.093,7.161,10.139a2.689,2.689,0,0,0,1.767-.167,3.659,3.659,0,0,0,1.706-2.993,18.58,18.58,0,0,0-.268-5.413A32.743,32.743,0,0,0,326,242.963a10.76,10.76,0,0,0-1.762-2.9c-1.927-2.142-5-2.9-7.878-2.864a12.779,12.779,0,0,0-6.273,1.559,7.991,7.991,0,0,0-3.872,5.034" fill="#2d1309" opacity="0.25"/>
          </g>
        </g>
      </g>
      <g id="Group_156" data-name="Group 156">
        <path id="Path_252" data-name="Path 252" d="M328.787,241.2A97.466,97.466,0,0,0,301,235.758c-12.2-.637-46.676,11.07-39.71-8.958C270.406,200.6,327.984,223.178,328.787,241.2Z" fill="#1ca32f"/>
        <path id="Path_253" data-name="Path 253" d="M328.791,241.194a97.533,97.533,0,0,0-27.783-5.438c-11.579-.6-43.232,9.916-40.46-6.156-.136,2.608.888,4.455,4.571,4.849,3.271.349,10.283-3.608,12.736-.02,2.195,3.211,10.6-1.959,16.832-2.71,4.475-.539,4.6,2.046,6.071,2.322,6.492,1.221,11.149-1.1,15.7-.061C324.521,235.833,328.74,240.07,328.791,241.194Z" fill="#2f963e" opacity="0.5" style="mix-blend-mode: multiply;isolation: isolate"/>
        <path id="Path_254" data-name="Path 254" d="M273.224,219.9c-15.94,12.152,23.234,6.75,28.008,7.079,5.874.534,13.476.836,18.863,4.186C313.316,224.559,281.057,213.931,273.224,219.9Z" fill="#227730" opacity="0.3" style="mix-blend-mode: screen;isolation: isolate"/>
      </g>
      <g id="Group_157" data-name="Group 157">
        <path id="Path_255" data-name="Path 255" d="M328.483,241.528a82.325,82.325,0,0,1,23.936-.4c10.249,1.28,37.217,16.144,34.389-1.564C383.111,216.4,331.826,226.649,328.483,241.528Z" fill="#1ca32f"/>
        <path id="Path_256" data-name="Path 256" d="M328.48,241.526a82.543,82.543,0,0,1,23.937-.4c9.73,1.214,34.519,14.67,34.6.88-.272,2.192-1.4,3.578-4.524,3.358-2.776-.2-8.025-4.53-10.6-1.907-2.3,2.349-8.532-3.2-13.611-4.754-3.646-1.111-4.137,1.019-5.4,1.032-5.585.052-9.117-2.574-13.057-2.38C332.83,237.7,328.69,240.6,328.48,241.526Z" fill="#2f963e" opacity="0.5" style="mix-blend-mode: multiply;isolation: isolate"/>
        <path id="Path_257" data-name="Path 257" d="M377.9,232.047c11.466,12.483-20.344,2.173-24.366,1.738-4.971-.428-11.345-1.3-16.326.685C343.831,229.974,372.266,225.914,377.9,232.047Z" fill="#227730" opacity="0.3" style="mix-blend-mode: screen;isolation: isolate"/>
      </g>
      <g id="Group_158" data-name="Group 158">
        <path id="Path_258" data-name="Path 258" d="M326.774,241.038A88.973,88.973,0,0,0,315.6,217.713c-6.188-9.285-33.582-28.163-15.1-33.986C324.666,176.108,339.537,230.619,326.774,241.038Z" fill="#1ca32f"/>
        <path id="Path_259" data-name="Path 259" d="M326.778,241.04A89.165,89.165,0,0,0,315.6,217.715c-5.874-8.816-30.855-26.269-17.567-33.007-1.986,1.322-2.781,3.082-1.06,5.994,1.531,2.589,8.256,5.566,6.965,9.323-1.156,3.36,7.218,6.7,11.171,10.855,2.836,2.987,1.014,4.49,1.611,5.716,2.648,5.422,6.893,7.566,8.609,11.466C328.376,234.986,327.574,240.389,326.778,241.04Z" fill="#2f963e" opacity="0.5" style="mix-blend-mode: multiply;isolation: isolate"/>
        <path id="Path_260" data-name="Path 260" d="M312.059,188.705c-17.6-5.048,7.73,20.709,10.094,24.385,2.815,4.6,6.741,10.333,7.226,16.107C330.524,220.625,320.708,191.186,312.059,188.705Z" fill="#227730" opacity="0.3" style="mix-blend-mode: screen;isolation: isolate"/>
      </g>
      <g id="Group_159" data-name="Group 159">
        <path id="Path_261" data-name="Path 261" d="M329.678,239.907a100.709,100.709,0,0,1,17.055-17.493c8.319-6.767,38.256-18.851,23.813-25.62C351.655,187.937,321.686,230.087,329.678,239.907Z" fill="#1ca32f"/>
        <path id="Path_262" data-name="Path 262" d="M329.675,239.907a100.925,100.925,0,0,1,17.055-17.492c7.9-6.425,35.27-17.636,25.675-24.555,1.336,1.288,1.49,2.792-.926,4.939-2.148,1.909-8.984,3.543-9.014,6.709-.024,2.833-8.422,4.57-13.186,7.467-3.419,2.081-2.283,3.5-3.188,4.414-4.009,4.06-8.4,5.3-11.123,8.247C330.146,234.86,329.176,239.294,329.675,239.907Z" fill="#2f963e" opacity="0.5" style="mix-blend-mode: multiply;isolation: isolate"/>
        <path id="Path_263" data-name="Path 263" d="M358.836,199.49c17.042-2.071-13.215,15.778-16.433,18.467-3.9,3.378-9.129,7.546-11.345,12.134C332.708,223.07,350.462,200.508,358.836,199.49Z" fill="#227730" opacity="0.3" style="mix-blend-mode: screen;isolation: isolate"/>
      </g>
      <g id="Group_160" data-name="Group 160">
        <path id="Path_264" data-name="Path 264" d="M329.014,241.66c5.933,5.767,13.782,11.435,19.528,20.815,6.2,10.129,6.6,16.646,10.654,24.764,3.683,7.374,10.841,12.989,17.231,10.776,16.2-5.608,8.615-24.208,2.048-33.777C367.531,248.291,339.322,237.1,329.014,241.66Z" fill="#1ca32f"/>
        <path id="Path_265" data-name="Path 265" d="M367.326,257.9c5.762,4.828,14.5,12.541,12.253,21.079-1.846,7.548-6.173,6.734-10.305,1.476-5.3-6.971-6.151-16.09-12.563-22.843-5.535-5.736-12.9-9.68-19.611-13.716C337.1,243.9,356.818,249.1,367.326,257.9Z" fill="#227730" opacity="0.3" style="mix-blend-mode: screen;isolation: isolate"/>
        <path id="Path_266" data-name="Path 266" d="M385.927,287.35c-3.892,8.359-11.545,10.762-14.916,4.792-.134-.239-.331-.506-.492-.834-1.144-2.36-2.245-7.036-4.186-7.743-2.531-.923-5.489-1.122-6.217-4.617-1.04-4.985.125-14.658-4.515-14.291-1,.078-1.415,1.482-1.834,1.72-1.794,1.053-2.816-2.869-3.377-5.6l0-.009c-.2-.907-.333-1.683-.425-2.1-1.209-5.238-3.939-4.984-7.431-7.142-4.96-3.065-13.23-9.99-13.517-9.864,3.45,3.355,7.545,6.675,11.5,10.705a56.7,56.7,0,0,1,8.025,10.111c6.2,10.129,6.6,16.647,10.657,24.765,2.993,6,8.289,10.837,13.6,11.238a8.873,8.873,0,0,0,3.629-.463C382.523,295.911,385.246,291.959,385.927,287.35Z" fill="#2f963e" opacity="0.5" style="mix-blend-mode: multiply;isolation: isolate"/>
      </g>
      <g id="Group_161" data-name="Group 161">
        <path id="Path_267" data-name="Path 267" d="M318.878,250.9a7.881,7.881,0,0,1,.582-6.178c2.491-3.9,7.184-6.5,11.861-5.489a7.976,7.976,0,0,1,6.3,6.7c.613,3.58.221,7.491-1.9,10.442s-6.222,4.608-9.57,3.2a10.483,10.483,0,0,1-3.088-2.177A14.533,14.533,0,0,1,318.878,250.9Z" fill="#702e0f"/>
        <path id="Path_268" data-name="Path 268" d="M331.321,239.236c-4.677-1.013-9.37,1.589-11.861,5.489a5.888,5.888,0,0,0-.787,2.034,5.491,5.491,0,0,1,.551-1.174c2.491-3.9,7.184-6.5,11.861-5.489a7.976,7.976,0,0,1,6.3,6.7,16.328,16.328,0,0,1-.125,6.407,15.825,15.825,0,0,0,.361-7.267A7.976,7.976,0,0,0,331.321,239.236Z" fill="#93492c" opacity="0.55"/>
        <path id="Path_269" data-name="Path 269" d="M333.933,245.4c.408.487,1.387.693,1.625-.087a1.338,1.338,0,0,0-.935-1.442C333.6,243.574,333.425,244.8,333.933,245.4Z" fill="#873f1b"/>
        <path id="Path_270" data-name="Path 270" d="M331.5,243.4c.635,0,1.425-.611.984-1.3a1.338,1.338,0,0,0-1.705-.218C329.885,242.477,330.7,243.4,331.5,243.4Z" fill="#873f1b"/>
        <path id="Path_271" data-name="Path 271" d="M332.493,246.132c.43-.541.4-1.655-.513-1.767-.687-.083-1.309.683-1.344,1.3C330.569,246.849,331.957,246.806,332.493,246.132Z" fill="#873f1b"/>
        <path id="Path_272" data-name="Path 272" d="M322.815,254.251a10.174,10.174,0,0,1-.867-5.56,15.351,15.351,0,0,0,2.551-.582,9.765,9.765,0,0,0,4.5-2.9,3.508,3.508,0,0,0,.89-1.8,2.9,2.9,0,0,0-.934-2.321,5.783,5.783,0,0,0-1.96-1.177c.243-.255.483-.51.744-.771a12.32,12.32,0,0,0-8.276,5.587,7.881,7.881,0,0,0-.582,6.178,14.525,14.525,0,0,0,4.189,6.5,10.5,10.5,0,0,0,3.088,2.177c3.348,1.409,7.452-.248,9.57-3.2a24.248,24.248,0,0,1-2.82,1.419C330.053,258.952,325.039,259.44,322.815,254.251Z" fill="#2d1309" opacity="0.25"/>
      </g>
      <g id="Group_162" data-name="Group 162">
        <path id="Path_273" data-name="Path 273" d="M343.693,237.274a7.879,7.879,0,0,0-4.292-4.481c-4.374-1.51-9.668-.636-12.706,3.062a7.975,7.975,0,0,0-.779,9.163c1.742,3.187,4.477,6.009,7.97,7.007s7.739-.251,9.488-3.435a10.493,10.493,0,0,0,1.069-3.623A14.533,14.533,0,0,0,343.693,237.274Z" fill="#702e0f"/>
        <path id="Path_274" data-name="Path 274" d="M343.693,237.274a9.422,9.422,0,0,0-2.123-3.117c.082.167.165.334.237.5a14.533,14.533,0,0,1,.749,7.693c-.175,1.254-10.359-10.8-10.969-9.688,4.226,5.151,5.871,8.583,6.723,11.89a3.692,3.692,0,0,1-2.364,4.413,6.93,6.93,0,0,1-3.946.443,12.254,12.254,0,0,1-5.745-3.822,13.638,13.638,0,0,0,7.631,6.437c3.493,1,7.739-.251,9.488-3.435a10.493,10.493,0,0,0,1.069-3.623A14.533,14.533,0,0,0,343.693,237.274Z" fill="#2d1309" opacity="0.35"/>
        <path id="Path_275" data-name="Path 275" d="M328.478,242.311c-.018.635-.658,1.4-1.329.941a1.338,1.338,0,0,1-.162-1.711C327.6,240.671,328.5,241.52,328.478,242.311Z" fill="#873f1b"/>
        <path id="Path_276" data-name="Path 276" d="M329.147,239.231c-.5.4-1.5.406-1.577-.4-.06-.607.643-1.181,1.2-1.23C329.834,237.5,329.764,238.736,329.147,239.231Z" fill="#873f1b"/>
        <path id="Path_277" data-name="Path 277" d="M330.059,241.988c-.674-.157-1.345-1.046-.695-1.7a1.4,1.4,0,0,1,1.863.187C332.012,241.356,330.9,242.184,330.059,241.988Z" fill="#873f1b"/>
      </g>
      <g id="Group_163" data-name="Group 163">
        <path id="Path_278" data-name="Path 278" d="M317.1,229.656a7.887,7.887,0,0,1,5.835-2.112c4.589.588,8.947,3.72,10.028,8.381a7.975,7.975,0,0,1-3.366,8.558c-2.975,2.084-6.678,3.4-10.252,2.744s-6.824-3.658-6.979-7.287a10.474,10.474,0,0,1,.65-3.722A14.526,14.526,0,0,1,317.1,229.656Z" fill="#7f3014"/>
        <path id="Path_279" data-name="Path 279" d="M332.966,235.925c-1.081-4.661-5.439-7.793-10.028-8.381a5.9,5.9,0,0,0-2.176.157,5.571,5.571,0,0,1,1.3,0c4.59.588,8.947,3.72,10.028,8.381a7.975,7.975,0,0,1-3.366,8.558,16.315,16.315,0,0,1-5.846,2.624,15.832,15.832,0,0,0,6.725-2.778A7.975,7.975,0,0,0,332.966,235.925Z" fill="#9b3e1e" opacity="0.59"/>
        <path id="Path_280" data-name="Path 280" d="M328.505,240.921c-.266.577-.034,1.55.773,1.432a1.338,1.338,0,0,0,.9-1.461C330.016,239.839,328.837,240.2,328.505,240.921Z" fill="#9b3e1e"/>
        <path id="Path_281" data-name="Path 281" d="M329.271,237.864c.268.576,1.161,1.027,1.593.336a1.339,1.339,0,0,0-.531-1.635C329.422,236.011,328.937,237.146,329.271,237.864Z" fill="#9b3e1e"/>
        <path id="Path_282" data-name="Path 282" d="M327.231,239.93c.673.158,1.669-.341,1.378-1.218a1.4,1.4,0,0,0-1.752-.659C325.761,238.5,326.393,239.733,327.231,239.93Z" fill="#9b3e1e"/>
      </g>
    </g>
    <path id="Path_283" data-name="Path 283" d="M86.79,436.48C66.8,435.421,19.78,439.023,18.2,447.429c-.638,3.405,27.565,6.666,46.19,3.785C12.37,446.611,50.789,436.837,86.79,436.48Z" fill="#2b1449" style="mix-blend-mode: screen;isolation: isolate"/>
    <g id="Group_204" data-name="Group 204">
      <g id="Group_165" data-name="Group 165" opacity="0.28">
        <path id="Path_285" data-name="Path 285" d="M319.352,412.342c-2.22,0-4.376.05-6.441.141a2.62,2.62,0,0,0,.32-1.218c0-7.038-31.47-12.744-70.29-12.744s-70.29,5.706-70.29,12.744,31.47,12.745,70.29,12.745c20.968,0,39.789-1.666,52.667-4.306,4.673,1.5,13.552,2.518,23.744,2.518,15.047,0,27.245-2.211,27.245-4.94S334.4,412.342,319.352,412.342Z" fill="#efae32" fill-rule="evenodd"/>
      </g>
      <g id="Group_203" data-name="Group 203">
        <g id="Group_167" data-name="Group 167">
          <path id="Path_286" data-name="Path 286" d="M177.708,395.6c-.134,6.1,3.056,12.673,6.7,17.616,1.731,2.338,3.467,5.864,9.58,4.087,2.829-.822,17.211.289,21.129-4.091a59.461,59.461,0,0,0,18.92,2.457c10.292-.465,4.25-5.928.679-18.546-4.776-8.417-8.45-10.841-19.785-10.366-4.651.195-14.7,2.785-24,10.366l1.708-1.332a15.444,15.444,0,0,0-5.34-5.3c-1.4-.63-3.332-.072-2.248,1.785" fill="#ffe5cc" stroke="#9e5f43" stroke-linecap="round" stroke-linejoin="round" stroke-width="0.758"/>
          <path id="Path_287" data-name="Path 287" d="M187.877,392.27c-.4-1.059-1.935-2.4-2.878-2.4-1.3,0-1.87.422-.683,2.216" fill="#ffe5cc" stroke="#9e5f43" stroke-linecap="round" stroke-linejoin="round" stroke-width="0.758"/>
          <path id="Path_288" data-name="Path 288" d="M185.739,392.524a4.087,4.087,0,0,0-2.928-2.331c-2.166-.43-1.658,3.254-.221,4.242" fill="#ffe5cc" stroke="#9e5f43" stroke-linecap="round" stroke-linejoin="round" stroke-width="0.758"/>
          <path id="Path_289" data-name="Path 289" d="M184.1,394.713c-.273-1.32-1.984-4.185-3.994-3.829-1.738.308-2.018,3.112,0,5.157" fill="#ffe5cc" stroke="#9e5f43" stroke-linecap="round" stroke-linejoin="round" stroke-width="0.758"/>
          <path id="Path_290" data-name="Path 290" d="M182.986,396.808c-.547-1.651-2.267-4.05-3.627-4.168-2.784-.154-2.652,4.693-.909,6.806" fill="#ffe5cc" stroke="#684023" stroke-linecap="round" stroke-linejoin="round" stroke-width="0.758"/>
          <path id="Path_291" data-name="Path 291" d="M178.58,392.751c-2.4,2.039,1.634,8.7,4.642,12.775,1.731,2.338,3.467,5.864,9.58,4.087,1.539-.447,6.588-.317,11.548-1.211a71.81,71.81,0,0,0,9.581-2.88c2.738-.741,1.824,3.165,18.92,2.457,2.832-.117,4.422-.621,5.172-1.549,2.4,6.078,3.287,8.9-3.984,9.234a59.461,59.461,0,0,1-18.92-2.457c-3.918,4.38-18.3,3.269-21.129,4.091-6.113,1.777-7.849-1.749-9.58-4.087-3.054-4.141-5.78-9.429-6.509-14.619C176.859,396.532,176.882,393.38,178.58,392.751Z" fill="#f7cbad" opacity="0.3" style="mix-blend-mode: multiply;isolation: isolate"/>
          <g id="Group_166" data-name="Group 166">
            <path id="Path_292" data-name="Path 292" d="M177.943,398.928c.8,5.082,3.479,10.232,6.467,14.283,1.731,2.338,3.467,5.864,9.58,4.087,2.829-.822,17.211.289,21.129-4.091a59.461,59.461,0,0,0,18.92,2.457c10.292-.465,4.25-5.928.679-18.546-4.776-8.417-8.45-10.841-19.785-10.366-4.651.195-14.7,2.785-24,10.366l1.708-1.332a15.444,15.444,0,0,0-5.34-5.3" fill="none" stroke="#9e5f43" stroke-linecap="round" stroke-linejoin="round" stroke-width="0.758"/>
            <path id="Path_293" data-name="Path 293" d="M182.986,396.808c-.547-1.651-2.267-4.05-3.627-4.168-2.784-.154-2.652,4.693-.909,6.806" fill="none" stroke="#9e5f43" stroke-linecap="round" stroke-linejoin="round" stroke-width="0.758"/>
          </g>
        </g>
        <g id="Group_168" data-name="Group 168">
          <path id="Path_294" data-name="Path 294" d="M269.3,360.6c7.265,2.793,5.413,9.054,5.983,14.335.285,2.867,3.372,6.387,3.372,13.212l-4.8,9.874c-11.111,12.674-25.354,19.011-40.453,9.053-4.843-3.32-11.395-15.692-11.68-22.331-.285-7.847,5.983-17.5,10.541-23.539,3.418-3.923,11.11-13.58,16.807-10.26" fill="#ffe5cc" stroke="#9e5f43" stroke-linecap="round" stroke-linejoin="round" stroke-width="0.758"/>
          <path id="Path_295" data-name="Path 295" d="M221.729,384.746c-.279-7.683,5.723-17.1,10.252-23.155,1.587,4.8,2.071,9.906.787,14.2-2.136,6.563-3.218,10.984,2.337,16.869,4.487,4.753,16.406,4.042,21.748,1.778,6.623-2.49,11.9-6.415,14.665-10.218,3.651-5.025.788-8.331,3.291-17.358.51,2.569.193,5.446.477,8.079.285,2.867,3.372,6.387,3.372,13.212l-4.8,9.874c-11.111,12.674-25.354,19.011-40.453,9.053C228.566,403.757,222.014,391.385,221.729,384.746Z" fill="#f7cbad" opacity="0.3" style="mix-blend-mode: multiply;isolation: isolate"/>
          <path id="Path_296" data-name="Path 296" d="M269.3,360.6c7.265,2.793,5.413,9.054,5.983,14.335.285,2.867,3.372,6.387,3.372,13.212l-4.8,9.874c-11.111,12.674-25.354,19.011-40.453,9.053-4.843-3.32-11.395-15.692-11.68-22.331-.285-7.847,5.983-17.5,10.541-23.539,3.418-3.923,11.11-13.58,16.807-10.26" fill="none" stroke="#9e5f43" stroke-linecap="round" stroke-linejoin="round" stroke-width="0.758"/>
        </g>
        <g id="Group_169" data-name="Group 169">
          <path id="Path_297" data-name="Path 297" d="M232.863,394.553a6.052,6.052,0,0,0,1.358,2.565" fill="none" stroke="#9e5f43" stroke-linecap="round" stroke-linejoin="round" stroke-width="0.758"/>
          <path id="Path_298" data-name="Path 298" d="M234.372,395.157a7.483,7.483,0,0,0-3.018,1.207" fill="none" stroke="#9e5f43" stroke-linecap="round" stroke-linejoin="round" stroke-width="0.758"/>
        </g>
        <g id="Group_170" data-name="Group 170">
          <path id="Path_299" data-name="Path 299" d="M279.986,400.89c-6.552,3.471-6.409,5.583-12.534,9.506-4.131,2.565-9.348,3.471-13.479,5.885-8.689,4.979-24.979,3.471-30.677-5.885a25.373,25.373,0,0,1-2.182-21.3c-1.73-.71-2.091-3.3.473-2.391.285-2.565,2.136-4.074,2.849-1.056.427,1.961-.143,2.414,0,4.375.284,6.338,6.368,13.848,12.493,15.357,8.261,1.961,15.371-1.259,22.208-5.937,4.415-2.867,10.451-9.224,14.44-12.694a50.932,50.932,0,0,0,4.249-4.513c1.852-.3,3.3,0,3.3,2.869,1.567-.151,4.693-1.2,3.411,1.823l-2.137.039c-3.276.453-2.836,2.6-3.833,5.32" fill="#ff8a50"/>
          <path id="Path_300" data-name="Path 300" d="M226.43,411c2.279,2.867,8.831,7.394,12.534,5.13-3.988-1.358-7.407-2.716-9.4-7.092a22.42,22.42,0,0,0,20.8,3.773c3.846-1.208,6.552-3.622,9.259-6.79,2.564-2.867,3.561-6.941,6.267-9.657-7.264,6.488-12.535,15.541-23.645,13.278-7.887-1.671-16.131-6.045-16.8-15.248,2.015,5.042,6.737,9.819,11.486,10.989,8.261,1.961,15.371-1.259,22.208-5.937,4.415-2.867,10.451-9.224,14.44-12.694a50.932,50.932,0,0,0,4.249-4.513c1.852-.3,3.3,0,3.3,2.869,1.567-.151,4.693-1.2,3.411,1.823l-2.137.039c-3.276.453-2.836,2.6-3.833,5.32l1.424,8.6c-6.552,3.471-6.409,5.583-12.534,9.506-4.131,2.565-9.348,3.471-13.479,5.885-8.689,4.979-24.979,3.471-30.677-5.885a25.321,25.321,0,0,1-2.029-4.243C223.8,405.968,225.051,409.539,226.43,411Z" fill="#f98253" opacity="0.5" style="mix-blend-mode: multiply;isolation: isolate"/>
          <path id="Path_301" data-name="Path 301" d="M279.986,400.89c-6.552,3.471-6.409,5.583-12.534,9.506-4.131,2.565-9.348,3.471-13.479,5.885-8.689,4.979-24.979,3.471-30.677-5.885a25.373,25.373,0,0,1-2.182-21.3c-1.73-.71-2.091-3.3.473-2.391.285-2.565,2.136-4.074,2.849-1.056.427,1.961-.143,2.414,0,4.375.284,6.338,6.368,13.848,12.493,15.357,8.261,1.961,15.371-1.259,22.208-5.937,4.415-2.867,10.451-9.224,14.44-12.694a50.932,50.932,0,0,0,4.249-4.513c1.852-.3,3.3,0,3.3,2.869,1.567-.151,4.693-1.2,3.411,1.823l-2.137.039c-3.276.453-2.836,2.6-3.833,5.32" fill="none" stroke="#9e5f43" stroke-linecap="round" stroke-linejoin="round" stroke-width="0.758"/>
        </g>
        <g id="Group_188" data-name="Group 188">
          <g id="Group_171" data-name="Group 171">
            <path id="Path_302" data-name="Path 302" d="M273.977,358.065c8.6,3.622,16.453,5.783,25.69,5.357,4.377-.2,8.507-4.071,6.622-7.632-1.91-3.607-6.581-9.965-8.586-18.061,0,0,.229-3.231.229-3.8s-3.5-8.034-3.5-8.034-7.936-3.8-9.955-2.647-7.813,13.3-7.813,13.3" fill="#ff8a50" stroke="#9e5f43" stroke-linecap="round" stroke-linejoin="round" stroke-width="0.758"/>
            <path id="Path_303" data-name="Path 303" d="M272.782,358.554a54.439,54.439,0,0,0,25.786,4.958c4.26-.212,7.5-3.61,5.667-7.342-1.859-3.781-7.648-10.964-8.146-21.371l-8.295-10.4h-5.338l-6.993,22.437" fill="#d67347" stroke="#9e5f43" stroke-linecap="round" stroke-linejoin="round" stroke-width="0.758"/>
          </g>
          <g id="Group_172" data-name="Group 172">
            <path id="Path_304" data-name="Path 304" d="M231.008,321.6a3.742,3.742,0,0,0-5.756-2.868,7.356,7.356,0,0,0-2.687,7.041c.52,2.579,2.318,4.185,5.6,3.412" fill="#ffe5cc" stroke="#684023" stroke-linecap="round" stroke-linejoin="round" stroke-width="0.758"/>
            <path id="Path_305" data-name="Path 305" d="M228,325.966c.476-1.434.5-3.575-.812-4.336-1.977-1.06-2.764.358-3.034,2.2" fill="#ffe5cc" stroke="#9e5f43" stroke-linecap="round" stroke-linejoin="round" stroke-width="0.758"/>
            <path id="Path_306" data-name="Path 306" d="M222.672,325.338c1.114.656,2.845,2.833,4.017.306.748-1.76-1.417-4.252-2.79-2.178.077-1.019,1.218-2.955,2.249-3.281,1.25-.627,1.9.3,2.693,1.034a2.373,2.373,0,0,0-1.726-3.1l.01-.013a3.778,3.778,0,0,1,3.883,3.486l-2.84,7.585c-3.285.773-5.083-.833-5.6-3.412-.036-.174-.062-.353-.081-.535C222.547,325.27,222.61,325.306,222.672,325.338Z" fill="#ffdbbd" style="mix-blend-mode: multiply;isolation: isolate"/>
            <path id="Path_307" data-name="Path 307" d="M231.008,321.6a3.742,3.742,0,0,0-5.756-2.868,7.356,7.356,0,0,0-2.687,7.041c.52,2.579,2.318,4.185,5.6,3.412" fill="none" stroke="#9e5f43" stroke-linecap="round" stroke-linejoin="round" stroke-width="0.758"/>
          </g>
          <path id="Path_308" data-name="Path 308" d="M241.594,300.883c-8.233,3.293-10.876,9.631-11.535,18.6-4.055,4.908-17.82,28.31,15.935,36.955l3.143,1.049c18.365,8.672,39.7,10.68,45.438-14.24,1.984-8.614,3.509-16.554-1.925-24.128" fill="#ffe5cc" stroke="#9e5f43" stroke-linecap="round" stroke-linejoin="round" stroke-width="0.758"/>
          <path id="Path_309" data-name="Path 309" d="M252.143,329.826c-.411-.33-1.07-1.565-.494-2.306,1.4-1.646,2.8.861,2.8,2.141" fill="#ffe5cc" stroke="#9e5f43" stroke-linecap="round" stroke-linejoin="round" stroke-width="0.758"/>
          <g id="Group_173" data-name="Group 173">
            <path id="Path_310" data-name="Path 310" d="M275.03,335.847a2.314,2.314,0,1,1-2.314-2.314A2.314,2.314,0,0,1,275.03,335.847Z" fill="#684023"/>
            <path id="Path_311" data-name="Path 311" d="M273.672,335.482a1.249,1.249,0,1,1-1.248-1.249A1.248,1.248,0,0,1,273.672,335.482Z" fill="#fff"/>
          </g>
          <path id="Path_312" data-name="Path 312" d="M275.808,323.621c2.874-2.684,7.724-.594,6.845,4.323" fill="none" stroke="#9e5f43" stroke-linecap="round" stroke-linejoin="round" stroke-width="0.758"/>
          <g id="Group_174" data-name="Group 174">
            <path id="Path_313" data-name="Path 313" d="M240.683,323.987a2.314,2.314,0,1,1-2.314-2.314A2.314,2.314,0,0,1,240.683,323.987Z" fill="#684023"/>
            <circle id="Ellipse_1" data-name="Ellipse 1" cx="1.248" cy="1.248" r="1.248" transform="translate(236.828 322.373)" fill="#fff"/>
          </g>
          <path id="Path_314" data-name="Path 314" d="M239.567,312.329a4.2,4.2,0,0,1,7.8,1.818" fill="none" stroke="#9e5f43" stroke-linecap="round" stroke-linejoin="round" stroke-width="0.758"/>
          <g id="Group_184" data-name="Group 184">
            <path id="Path_315" data-name="Path 315" d="M274.467,288.644c1.488-4.485,8.534-2.319,6.021,3.151" fill="#ff8a50" stroke="#9e5f43" stroke-linecap="round" stroke-linejoin="round" stroke-width="0.758"/>
            <path id="Path_316" data-name="Path 316" d="M278.193,286.273c.9.95,1.273,2.506.358,4.509l1.937,1.013C281.938,288.638,280.2,286.586,278.193,286.273Z" fill="#f98253" opacity="0.5" style="mix-blend-mode: multiply;isolation: isolate"/>
            <path id="Path_317" data-name="Path 317" d="M274.467,288.644c1.488-4.485,8.534-2.319,6.021,3.151" fill="none" stroke="#9e5f43" stroke-linecap="round" stroke-linejoin="round" stroke-width="0.758"/>
            <path id="Path_318" data-name="Path 318" d="M299.8,333.748c9.8-33.843-15.726-45.436-32.283-47.595-11.745-1.531-26.163,1.989-32.564,18.353,0,0,9.4,1.272,9.854,1.4s21.566,5.124,21.566,5.124,13.736,7.718,14.505,7.742,15.141,13.051,15.591,13.443a26.435,26.435,0,0,0,3.331,1.536" fill="#ff8a50" stroke="#9e5f43" stroke-linecap="round" stroke-linejoin="round" stroke-width="0.758"/>
            <g id="Group_175" data-name="Group 175" opacity="0.5" style="mix-blend-mode: multiply;isolation: isolate">
              <path id="Path_319" data-name="Path 319" d="M301.171,328.027c-.759.386-2.635.561-4.283-2.089-1.255-2.019.409-13.466-4.477-21.111a29.707,29.707,0,0,1,1.654,6.02,33.1,33.1,0,0,1-.153,9.182c-.245,1.578-.945,2.69-1.963,1.65a28.518,28.518,0,0,0-2.09-2.009c-1.528-1.56-4.034-3.294-4.028-5.673.059-1.944,3.273-16.982-9.976-21.565a18.983,18.983,0,0,0-12.935.183l1.583,6.247a13.991,13.991,0,0,0-.008,11.027c.1.26.215.513.324.769l1.559.369s13.736,7.718,14.505,7.742,15.141,13.051,15.591,13.443a26.435,26.435,0,0,0,3.331,1.536C300.045,332.062,301.069,329.614,301.171,328.027Z" fill="#f98253"/>
              <path id="Path_320" data-name="Path 320" d="M256.764,291.923c-7.558.467-12.866,8.34-14.24,13.711.451.047.861.09,1.207.129l.649-.81C244.373,302.914,249.319,294.292,256.764,291.923Z" fill="#f98253"/>
            </g>
            <path id="Path_321" data-name="Path 321" d="M244.6,292.881a10.447,10.447,0,0,0-3.093,3.2c-.531.877-1.658,2.761-1.081,3.9.768,1.651,3.724-2.723,4.113-3.5a5.413,5.413,0,0,1,1.653-2.349C246.715,293.665,247.722,290.936,244.6,292.881Z" fill="#f98253" opacity="0.5" style="mix-blend-mode: screen;isolation: isolate"/>
            <path id="Path_322" data-name="Path 322" d="M248.377,292.728a5.152,5.152,0,0,0-1.526,1.582c-.262.433-.818,1.363-.533,1.923.378.815,1.837-1.344,2.029-1.729a2.661,2.661,0,0,1,.816-1.159C249.423,293.115,249.92,291.768,248.377,292.728Z" fill="#f98253" opacity="0.5" style="mix-blend-mode: screen;isolation: isolate"/>
            <g id="Group_180" data-name="Group 180">
              <path id="Path_323" data-name="Path 323" d="M272.7,311.743,255.5,304.394c.106-2.85,2.925-10.8,11.245-8.721C274.285,297.556,275.562,304.541,272.7,311.743Z" fill="#ffe5cc" stroke="#684023" stroke-linecap="round" stroke-linejoin="round" stroke-width="0.758"/>
              <path id="Path_324" data-name="Path 324" d="M267.367,293.7c-11.117-2.776-14.885,7.845-15.026,11.653l22.976,9.819C279.146,305.552,277.439,296.218,267.367,293.7Zm3.342,16.543-12.85-5.492c.079-2.129,2.186-8.069,8.4-6.517C271.9,299.643,272.85,304.864,270.709,310.245Z" fill="#ffda3e" stroke="#9e5f43" stroke-linecap="round" stroke-linejoin="round" stroke-width="0.758"/>
              <g id="Group_176" data-name="Group 176" style="mix-blend-mode: multiply;isolation: isolate">
                <path id="Path_325" data-name="Path 325" d="M277.163,305.3a10.158,10.158,0,0,1-.935,3.8c-1.024,1.529-2.353,1.371-2.755-.321-.387-1.987.182-4.029-.582-6.13a8.365,8.365,0,0,0-5.124-4.957c-.652-.181-3.05-.532-4.157.214a19.11,19.11,0,0,1,1.956.06c6.31,1.576,7.181,6.34,5.239,12.278l-10.026-4.286a30.617,30.617,0,0,0,1.584,3.683l12.954,5.536a23.548,23.548,0,0,0,1.849-9.932C277.164,305.262,277.165,305.28,277.163,305.3Z" fill="#ffda3e"/>
                <path id="Path_326" data-name="Path 326" d="M274.467,297.887l-.025,0c.124,2.118,1.846,3.5,2.5,5.441A11.8,11.8,0,0,0,274.467,297.887Z" fill="#ffda3e"/>
              </g>
              <g id="Group_179" data-name="Group 179" style="mix-blend-mode: screen;isolation: isolate">
                <g id="Group_177" data-name="Group 177">
                  <path id="Path_327" data-name="Path 327" d="M256.041,301.641a7.4,7.4,0,0,1,1.35-2.422.986.986,0,0,0-.069-1.3.8.8,0,0,0-1.183.083,8.689,8.689,0,0,0-1.591,2.812c-.427,1.089,1.065,1.917,1.493.825Z" fill="#ffdd4d"/>
                </g>
                <g id="Group_178" data-name="Group 178">
                  <path id="Path_328" data-name="Path 328" d="M258.664,297.782c.218-.088.438-.176.65-.281a.976.976,0,0,0,.339-1.249.812.812,0,0,0-1.136-.364c-.051.025-.1.05-.156.073.22-.1-.046.017-.088.034a.956.956,0,0,0-.619,1.114c.1.445.58.847,1.01.673Z" fill="#ffdd4d"/>
                </g>
              </g>
              <path id="Path_329" data-name="Path 329" d="M267.367,293.7c-11.117-2.776-14.885,7.845-15.026,11.653l22.976,9.819C279.146,305.552,277.439,296.218,267.367,293.7Zm3.342,16.543-12.85-5.492c.079-2.129,2.186-8.069,8.4-6.517C271.9,299.643,272.85,304.864,270.709,310.245Z" fill="none" stroke="#9e5f43" stroke-linecap="round" stroke-linejoin="round" stroke-width="0.758"/>
            </g>
            <path id="Path_330" data-name="Path 330" d="M234.806,303.76a9.373,9.373,0,0,0-2.345,5.669c17.129-4.322,47.843,3.072,65.589,29.848a10.628,10.628,0,0,0,1.755-5.529C282.408,304.845,247.443,299.458,234.806,303.76Z" fill="#ffda3e" stroke="#9e5f43" stroke-linecap="round" stroke-linejoin="round" stroke-width="0.758"/>
            <g id="Group_183" data-name="Group 183">
              <g id="Group_181" data-name="Group 181" style="mix-blend-mode: screen;isolation: isolate">
                <path id="Path_331" data-name="Path 331" d="M245.754,304.022c-3.138-.62-6.937-.185-9.954.284-1.472.229-.911,2.133.551,1.906,2.818-.438,6.487.38,9.314.742C247.142,307.144,248.892,304.641,245.754,304.022Z" fill="#ffdd4d"/>
              </g>
              <g id="Group_182" data-name="Group 182" style="mix-blend-mode: screen;isolation: isolate">
                <path id="Path_332" data-name="Path 332" d="M249.225,306.6c.285.041.57.084.857.1a1.143,1.143,0,0,0-.023-2.275c-.07,0-.139-.011-.209-.018.291.031-.06-.011-.115-.019a1.062,1.062,0,0,0-1.259.831,1.143,1.143,0,0,0,.749,1.378Z" fill="#ffdd4d"/>
              </g>
            </g>
            <path id="Path_333" data-name="Path 333" d="M293.985,325.633c2.155,3.8,3.388,5.636,2.171,6.52-.75.489-4.829-4.712-5.625-5.71-5.581-6.619-12.9-10.064-20.575-13.7a41.966,41.966,0,0,0-17.446-4.668c-1.018-.031-6.845-1.117-9.38.7a67.362,67.362,0,0,1,54.92,30.5,10.628,10.628,0,0,0,1.755-5.529A62.054,62.054,0,0,0,293.985,325.633Z" fill="#feda3f" style="mix-blend-mode: multiply;isolation: isolate"/>
            <path id="Path_334" data-name="Path 334" d="M234.806,303.76a9.373,9.373,0,0,0-2.345,5.669c17.129-4.322,47.843,3.072,65.589,29.848a10.628,10.628,0,0,0,1.755-5.529C282.408,304.845,247.443,299.458,234.806,303.76Z" fill="none" stroke="#9e5f43" stroke-linecap="round" stroke-linejoin="round" stroke-width="0.758"/>
          </g>
          <g id="Group_185" data-name="Group 185">
            <path id="Path_335" data-name="Path 335" d="M247.3,333.7c-1.215,3.553-2.653,12.3,1.437,13.8,3.211,1.183,8.371-3.922,10.024-9.284C256.525,335.542,251.062,333.5,247.3,333.7Z" fill="#e54141" stroke="#91553d" stroke-linecap="round" stroke-linejoin="round" stroke-width="0.758"/>
            <path id="Path_336" data-name="Path 336" d="M246.032,341.785c.064,2.652.758,5.005,2.7,5.721,2.022.745,4.815-1,7.021-3.739C253.823,340.383,248.172,340.39,246.032,341.785Z" fill="#ff7471" stroke="#91553d" stroke-linecap="round" stroke-linejoin="round" stroke-width="0.758"/>
          </g>
          <path id="Path_337" data-name="Path 337" d="M243.356,354.263a4.466,4.466,0,0,0,8.037,2.646" fill="#ffe5cc" stroke="#9e5f43" stroke-linecap="round" stroke-linejoin="round" stroke-width="0.758"/>
          <g id="Group_186" data-name="Group 186">
            <path id="Path_338" data-name="Path 338" d="M263.936,297.886c-1.776-1.041-3.92.061-5.39,1.1-4.287,3.062-4.714,9.425-2.327,13.474.378-1.383,1.96-1.653,2.572-2.449a5.421,5.421,0,0,1-1.1,1.776,2.784,2.784,0,0,0,2.756-1.593c-.475,2.55-2.946,3.629-3.859,4.1a9.277,9.277,0,0,0,10.535-4.533c0,1.409-2.205,4.043-3.614,4.961,1.409.307,3.614-1.041,4.655-1.776a8.361,8.361,0,0,0,3.736-7.472C271.906,299.846,268.1,295.865,263.936,297.886Z" fill="#b57e59" stroke="#684023" stroke-linecap="round" stroke-linejoin="round" stroke-width="0.758"/>
            <path id="Path_339" data-name="Path 339" d="M270.062,299.471c2.238,6.817-1.061,11.764-1.8,10.722-.217-.3.13-1.562.044-2-.131-1.042-.3-1.129-.869-.522-.477.478-.738.608-.738-.216-.781,1.128-1.389,2.561-2.518,3.429-.738.564-2.952,2.171-2.648.347.087-.651.912-2.431.434-3.082-.39-.521-1.3,1-2,.912a1.587,1.587,0,0,0,.131-1.086c-.3-.52-.174-.086-.608.044-.521.13-.348.26-.521-.217a2.9,2.9,0,0,1,0-.868c-.651.607-2,2.257-3.039,1.693a3.08,3.08,0,0,1-1.133-2.5,11.139,11.139,0,0,0,1.418,6.326c.378-1.383,1.96-1.653,2.572-2.449a5.421,5.421,0,0,1-1.1,1.776,2.784,2.784,0,0,0,2.756-1.593c-.475,2.55-2.946,3.629-3.859,4.1a9.277,9.277,0,0,0,10.535-4.533c0,1.409-2.205,4.043-3.614,4.961,1.409.307,3.614-1.041,4.655-1.776a8.361,8.361,0,0,0,3.736-7.472A9.824,9.824,0,0,0,270.062,299.471Z" fill="#b57e59" opacity="0.4" style="mix-blend-mode: multiply;isolation: isolate"/>
            <path id="Path_340" data-name="Path 340" d="M263.936,297.886c-1.776-1.041-3.92.061-5.39,1.1-4.287,3.062-4.714,9.425-2.327,13.474.378-1.383,1.96-1.653,2.572-2.449a5.421,5.421,0,0,1-1.1,1.776,2.784,2.784,0,0,0,2.756-1.593c-.475,2.55-2.946,3.629-3.859,4.1a9.277,9.277,0,0,0,10.535-4.533c0,1.409-2.205,4.043-3.614,4.961,1.409.307,3.614-1.041,4.655-1.776a8.361,8.361,0,0,0,3.736-7.472C271.906,299.846,268.1,295.865,263.936,297.886Z" fill="none" stroke="#9e5f43" stroke-linecap="round" stroke-linejoin="round" stroke-width="0.758"/>
            <path id="Path_341" data-name="Path 341" d="M262.041,298.13a4.871,4.871,0,0,0-2.511,1.229c-.842.763-.653,2.138.465,1.465a5.759,5.759,0,0,1,1.218-.7,4.1,4.1,0,0,0,1.128-.53,2.01,2.01,0,0,0,.587-.624C263.268,298.389,262.673,298.06,262.041,298.13Z" fill="#895d3d" opacity="0.5" style="mix-blend-mode: screen;isolation: isolate"/>
            <path id="Path_342" data-name="Path 342" d="M257.711,301.237a1.955,1.955,0,0,0-.734,1.112c0,.1-.026.4.109.4a.785.785,0,0,0,.779-.451c.161-.244.628-.5.72-.789.151-.393-.588-.4-.874-.274" fill="#895d3d" opacity="0.5" style="mix-blend-mode: screen;isolation: isolate"/>
          </g>
          <path id="Path_343" data-name="Path 343" d="M273.308,340.343c-6.2-.888-9.739,13.3,1.53,12.03C280.895,351.668,281.838,341.564,273.308,340.343Z" fill="#f9c5b4"/>
          <path id="Path_344" data-name="Path 344" d="M232.429,325.93c-5.9-.845-9.273,12.662,1.457,11.455C239.654,336.714,240.552,327.093,232.429,325.93Z" fill="#f9c5b4"/>
          <g id="Group_187" data-name="Group 187">
            <path id="Path_345" data-name="Path 345" d="M290.211,343.237c1.894-2.223,6.752-1.893,7.986,1.153,1.058,2.607-.164,6.092-2.469,7.9-2.437,1.936-5.458,2.2-8.233-.576" fill="#ffe5cc" stroke="#9e5f43" stroke-linecap="round" stroke-linejoin="round" stroke-width="0.758"/>
            <path id="Path_346" data-name="Path 346" d="M290.047,349c.576-1.564,2.14-3.458,4.034-3.293,2.8.329,2.552,2.079,1.466,3.87" fill="none" stroke="#9e5f43" stroke-linecap="round" stroke-linejoin="round" stroke-width="0.758"/>
            <path id="Path_347" data-name="Path 347" d="M290.211,343.237c1.894-2.223,6.752-1.893,7.986,1.153,1.058,2.607-.164,6.092-2.469,7.9-2.437,1.936-5.458,2.2-8.233-.576" fill="none" stroke="#9e5f43" stroke-linecap="round" stroke-linejoin="round" stroke-width="0.758"/>
            <path id="Path_348" data-name="Path 348" d="M295.811,349.563c.62-1.394,2.169-3.3-.052-4.235a5.161,5.161,0,0,0-4.752.568c-.568.413-2.479,4.235-.929,4.287.413,0,1.653-1.7,2.066-2.014a2.954,2.954,0,0,1,2.582-.62,2.049,2.049,0,0,1,1.085,2.066" fill="#ffdbbd" style="mix-blend-mode: multiply;isolation: isolate"/>
            <path id="Path_349" data-name="Path 349" d="M289.1,352.817c-.147-.04-.312-.1-.469-.145a5.59,5.59,0,0,0,7.1-.379c2.3-1.811,3.527-5.3,2.469-7.9a4.288,4.288,0,0,0-3.268-2.472c-.228.141-1.009-.169-1.11,0a4.548,4.548,0,0,1,3.349,3.724c.207,1.7.261,2.987-.772,4.33C294.382,352.606,292.4,353.8,289.1,352.817Z" fill="#ffdbbd" style="mix-blend-mode: multiply;isolation: isolate"/>
            <path id="Path_350" data-name="Path 350" d="M290.211,343.237c1.894-2.223,6.752-1.893,7.986,1.153,1.058,2.607-.164,6.092-2.469,7.9-2.437,1.936-5.458,2.2-8.233-.576" fill="none" stroke="#9e5f43" stroke-linecap="round" stroke-linejoin="round" stroke-width="0.758"/>
          </g>
        </g>
        <g id="Group_194" data-name="Group 194">
          <g id="Group_193" data-name="Group 193">
            <circle id="Ellipse_2" data-name="Ellipse 2" cx="19.129" cy="19.129" r="19.129" transform="matrix(0.931, -0.366, 0.366, 0.931, 296.962, 388.653)" stroke-width="0.723" stroke="#494949" stroke-linecap="round" stroke-linejoin="round" fill="#edeceb"/>
            <g id="Group_189" data-name="Group 189">
              <line id="Line_1" data-name="Line 1" x1="0.807" y2="18.699" transform="translate(321.767 380.747)" fill="none" stroke="#7f7f7f" stroke-linecap="round" stroke-linejoin="round" stroke-width="0.723"/>
              <line id="Line_2" data-name="Line 2" x2="15.81" y2="9.683" transform="translate(305.958 389.764)" fill="none" stroke="#7f7f7f" stroke-linecap="round" stroke-linejoin="round" stroke-width="0.723"/>
              <line id="Line_3" data-name="Line 3" x1="15.847" y1="9.96" transform="translate(321.759 399.43)" fill="none" stroke="#7f7f7f" stroke-linecap="round" stroke-linejoin="round" stroke-width="0.723"/>
              <line id="Line_4" data-name="Line 4" y1="18.511" x2="1.014" transform="translate(320.745 399.43)" fill="none" stroke="#7f7f7f" stroke-linecap="round" stroke-linejoin="round" stroke-width="0.723"/>
              <line id="Line_5" data-name="Line 5" x1="15.516" y2="8.143" transform="translate(321.767 391.304)" fill="none" stroke="#7f7f7f" stroke-linecap="round" stroke-linejoin="round" stroke-width="0.723"/>
              <line id="Line_6" data-name="Line 6" x1="15.516" y2="8.143" transform="translate(305.029 400.088)" fill="none" stroke="#7f7f7f" stroke-linecap="round" stroke-linejoin="round" stroke-width="0.723"/>
            </g>
            <g id="Group_192" data-name="Group 192">
              <g id="Group_191" data-name="Group 191" clip-path="url(#clip-path-3)">
                <g id="Group_190" data-name="Group 190">
                  <path id="Path_351" data-name="Path 351" d="M321.38,408.6l-7.721-4.883.368-9.128,8.089-4.245,7.721,4.883-.368,9.128Z" fill="#2d2725"/>
                  <path id="Path_352" data-name="Path 352" d="M299.089,420.382l-7.721-4.883.368-9.128,8.089-4.245,7.721,4.883-.368,9.128Z" fill="#2d2725"/>
                  <path id="Path_353" data-name="Path 353" d="M343.776,396.832l-7.721-4.883.368-9.128,8.089-4.245,7.721,4.883-.368,9.128Z" fill="#2d2725"/>
                  <path id="Path_354" data-name="Path 354" d="M300.027,395.4l-7.721-4.883.368-9.128,8.089-4.245,7.721,4.883-.368,9.128Z" fill="#2d2725"/>
                  <path id="Path_355" data-name="Path 355" d="M322.443,383.639l-7.721-4.883.368-9.128,8.089-4.245,7.721,4.883-.368,9.128Z" fill="#2d2725"/>
                  <path id="Path_356" data-name="Path 356" d="M320.032,433.524l-7.721-4.883.368-9.128,8.089-4.245,7.721,4.883-.368,9.128Z" fill="#2d2725"/>
                  <path id="Path_357" data-name="Path 357" d="M342.448,421.761l-7.721-4.883.368-9.128,8.089-4.245,7.721,4.883-.368,9.128Z" fill="#2d2725"/>
                </g>
              </g>
            </g>
            <path id="Path_358" data-name="Path 358" d="M338.7,390.558a19.1,19.1,0,0,0-13.873-9.993,17.377,17.377,0,1,1-20.985,25.562,19.429,19.429,0,0,0,.982,2.208A19.129,19.129,0,1,0,338.7,390.558Z" fill="#686868" opacity="0.3"/>
            <circle id="Ellipse_4" data-name="Ellipse 4" cx="10.449" cy="10.449" r="10.449" transform="translate(304.518 401.033) rotate(-76.657)" fill="#fff" opacity="0.2" style="mix-blend-mode: screen;isolation: isolate"/>
          </g>
        </g>
        <g id="Group_195" data-name="Group 195">
          <path id="Path_359" data-name="Path 359" d="M197.982,385.722l5.082-33.345a2.74,2.74,0,0,1,2.709-2.327h0a3.082,3.082,0,0,1,3.083,3.082v1.161h3.581l.437-2a3.084,3.084,0,0,1,2.779-2.415l3.839-.291a3.083,3.083,0,0,1,3.232,2.364l.587,2.477,3.448-.133.6-2.24a3.082,3.082,0,0,1,3.45-2.242l.882.137a3.933,3.933,0,0,1,3.127,2.638c1.979,5.914,7.153,21.916,8.115,30.352C244.131,393.414,197.982,385.722,197.982,385.722Z" fill="#f8d057" stroke="#9e5f43" stroke-miterlimit="10" stroke-width="0.7"/>
          <path id="Path_360" data-name="Path 360" d="M187.215,418.213c1.061-2.7,3.023-28.6,3.593-36.389a2.436,2.436,0,0,1,2.478-2.2h.755a2.43,2.43,0,0,1,2.484,2.372v1.474l7.365.133v-1.607a2.43,2.43,0,0,1,2.484-2.372h4.747a2.466,2.466,0,0,1,2.41,1.8l.364,1.387,6.669.53,1.1-3.152a2.478,2.478,0,0,1,2.357-1.622H229.1a2.458,2.458,0,0,1,2.433,1.893l.565,2.616,7.086.4.688-3.036a2.462,2.462,0,0,1,2.429-1.871h3.273a2.455,2.455,0,0,1,2.447,1.962l8.116,44.188H184.853Z" fill="#efae32" stroke="#9e5f43" stroke-miterlimit="10" stroke-width="0.7"/>
          <path id="Path_361" data-name="Path 361" d="M209.913,374.354s.22-14.077,10.558-13.418,10.558,13.418,10.558,13.418Z" fill="#efae32"/>
          <path id="Path_362" data-name="Path 362" d="M195.06,415.24s.155-22.2,7.427-21.6,7.426,21.6,7.426,21.6Z" fill="#e9a126"/>
          <path id="Path_363" data-name="Path 363" d="M213.045,415.24s.154-22.2,7.426-21.6,7.426,21.6,7.426,21.6Z" fill="#e9a126"/>
          <path id="Path_364" data-name="Path 364" d="M231.029,415.24s.155-22.2,7.426-21.6,7.427,21.6,7.427,21.6Z" fill="#e9a126"/>
        </g>
        <g id="Group_199" data-name="Group 199">
          <g id="Group_196" data-name="Group 196">
            <path id="Path_365" data-name="Path 365" d="M254.327,366.337c-1.237.825-4.971,2.876-6.507,2.911-1.132.026-6.45-1.779-6.45-1.779,0-1.914-3.332-4.618-4.294-5.306-1.925-1.237-3.406-.967-2.94,1.49L228.9,364.93l-2.972,4.551v5.165c.865,2.723,4.714,6.448,8.293,5.5,0,0,9.781,9.967,16.654,9.28,5.087-.55,11.451-2.9,15.3-6.337" fill="#ffe5cc" stroke="#9e5f43" stroke-linecap="round" stroke-linejoin="round" stroke-width="0.758"/>
            <path id="Path_366" data-name="Path 366" d="M236.018,364.414c-2.708-.645-6.818-4.357-8.177-3.83-2.485.964.6,4.455,2.161,5.11" fill="#ffe5cc" stroke="#9e5f43" stroke-linecap="round" stroke-linejoin="round" stroke-width="0.758"/>
            <path id="Path_367" data-name="Path 367" d="M231.311,365.681c-2.113-.3-5.7-3.457-7-2.362-2.424,2.039,1.818,5.267,3.265,5.785" fill="#ffe5cc" stroke="#9e5f43" stroke-linecap="round" stroke-linejoin="round" stroke-width="0.758"/>
            <path id="Path_368" data-name="Path 368" d="M228.672,368.652c-1.554-.326-5.385-3.222-6.207-1.845-1.143,1.915,2.558,4.47,3.384,5.007" fill="#ffe5cc" stroke="#9e5f43" stroke-linecap="round" stroke-linejoin="round" stroke-width="0.758"/>
            <path id="Path_369" data-name="Path 369" d="M226.416,371.379c-1.77-.616-3.719-1.882-4.661-.585-1.2,1.656,4.143,4.457,4.968,4.994" fill="#ffe5cc" stroke="#9e5f43" stroke-linecap="round" stroke-linejoin="round" stroke-width="0.758"/>
          </g>
          <g id="Group_197" data-name="Group 197" opacity="0.3" style="mix-blend-mode: multiply;isolation: isolate">
            <path id="Path_370" data-name="Path 370" d="M250.875,389.423c-6.873.687-16.654-9.28-16.654-9.28-3.2.851-6.62-2.043-7.923-4.612-1.5-.885-5.613-3.264-4.543-4.737a1.281,1.281,0,0,1,.674-.491c-.141,1.177,3.032,2.723,5.016,3.686,2.414,1.173,2.118,3.869,6.776,3.465,3.51-.3,10.482,9.929,17.356,9.241a82.039,82.039,0,0,0,12.656-2.11A31.269,31.269,0,0,1,250.875,389.423Z" fill="#f7cbad"/>
          </g>
          <g id="Group_198" data-name="Group 198">
            <path id="Path_371" data-name="Path 371" d="M226.3,375.532c1.3,2.569,4.722,5.462,7.924,4.611,0,0,9.781,9.967,16.654,9.28,5.087-.55,11.451-2.9,15.3-6.337" fill="none" stroke="#9e5f43" stroke-linecap="round" stroke-linejoin="round" stroke-width="0.758"/>
            <path id="Path_372" data-name="Path 372" d="M226.416,371.379c-1.77-.616-3.719-1.882-4.661-.585-1.2,1.656,4.143,4.457,4.968,4.994" fill="none" stroke="#9e5f43" stroke-linecap="round" stroke-linejoin="round" stroke-width="0.758"/>
          </g>
        </g>
        <g id="Group_200" data-name="Group 200">
          <path id="Path_373" data-name="Path 373" d="M201.368,363.225c-1.438-2.694.209-3.521,2.142-4.56,1.331-.636,2.277-.234,1.716,1.419-.443,1.243-2.13,2.043-3.275,2.645" fill="#f7cbad" stroke="#9e5f43" stroke-linecap="round" stroke-linejoin="round" stroke-width="0.758"/>
          <path id="Path_374" data-name="Path 374" d="M201.045,366.023c-1.837-2.991.21-3.52,2.142-4.56,1.331-.636,2.277-.234,1.716,1.419-.443,1.243-2.13,2.043-3.274,2.645" fill="#f7cbad" stroke="#9e5f43" stroke-linecap="round" stroke-linejoin="round" stroke-width="0.758"/>
          <path id="Path_375" data-name="Path 375" d="M201.107,368.474c-1.837-3.091-.22-3.556,1.712-4.6,1.331-.636,2.707-.2,2.147,1.454-.444,1.243-2.131,2.044-3.275,2.645" fill="#f7cbad" stroke="#9e5f43" stroke-linecap="round" stroke-linejoin="round" stroke-width="0.758"/>
          <path id="Path_376" data-name="Path 376" d="M200.035,370.735c-.369-1.961-.016-3.195,1.916-4.235,1.331-.636,2.277-.234,1.717,1.418-.444,1.244-2.489,2.216-3.633,2.817" fill="#f7cbad" stroke="#9e5f43" stroke-linecap="round" stroke-linejoin="round" stroke-width="0.758"/>
        </g>
        <path id="Path_377" data-name="Path 377" d="M280.886,427.477c.4-.424.125-.9-.371-.588-6.817-.469-13.7-.95-20.253-2.879-3.236-.953-6.359-2.249-9.561-3.31a69.069,69.069,0,0,0-30.067-2.973,24.041,24.041,0,0,0-7.3,1.835c-1.965.922-3.793,2.307-5.95,2.548-2.468.275-4.806-1-7.184-1.711a21.88,21.88,0,0,0-12.39.377,65.283,65.283,0,0,0-11.481,5.072" fill="#f8d057"/>
        <path id="Path_378" data-name="Path 378" d="M280.886,427.477c.4-.424.125-.9-.371-.588-6.817-.469-13.7-.95-20.253-2.879-3.236-.953-6.359-2.249-9.561-3.31a69.069,69.069,0,0,0-30.067-2.973,24.041,24.041,0,0,0-7.3,1.835c-1.965.922-3.793,2.307-5.95,2.548-2.468.275-4.806-1-7.184-1.711a21.88,21.88,0,0,0-12.39.377,65.283,65.283,0,0,0-11.481,5.072" fill="#f8d057"/>
        <path id="Path_379" data-name="Path 379" d="M280.886,427.477c.4-.424.125-.9-.371-.588-6.817-.469-13.7-.95-20.253-2.879-3.236-.953-6.359-2.249-9.561-3.31a69.069,69.069,0,0,0-30.067-2.973,24.041,24.041,0,0,0-7.3,1.835c-1.965.922-3.793,2.307-5.95,2.548-2.468.275-4.806-1-7.184-1.711a21.88,21.88,0,0,0-12.39.377,65.283,65.283,0,0,0-11.481,5.072" fill="none" stroke="#9e5f43" stroke-linecap="round" stroke-linejoin="round" stroke-width="0.758"/>
        <g id="Group_202" data-name="Group 202">
          <path id="Path_380" data-name="Path 380" d="M280.66,393.257c-15.429-3.619-28.924,11.831-28.924,11.831-8.414.213-6.893,8.569-4.274,14.567,1.4,3.219,4.013,4.932,6.812,7.163,4.936,2.181,4.12-4.717,3.834-8.327l.138,1.555c11.443.152,21.923-.564,32-6.813,4.235-2.455,7.781-8.185,6.913-13.717A15.343,15.343,0,0,0,282.1,386.952a7.288,7.288,0,0,0-6.99,5.77" fill="#ffe5cc" stroke="#9e5f43" stroke-linecap="round" stroke-linejoin="round" stroke-width="0.758"/>
          <g id="Group_201" data-name="Group 201">
            <path id="Path_381" data-name="Path 381" d="M255.525,427.2c3.535.519,2.842-5.445,2.583-8.713l.138,1.555c11.443.152,21.923-.564,32-6.813,4.235-2.455,7.781-8.185,6.913-13.717A15.343,15.343,0,0,0,282.1,386.952a7.288,7.288,0,0,0-6.99,5.77" fill="none" stroke="#9e5f43" stroke-linecap="round" stroke-linejoin="round" stroke-width="0.758"/>
            <path id="Path_382" data-name="Path 382" d="M280.66,393.257c-15.429-3.619-28.924,11.831-28.924,11.831-5.429.137-6.722,3.666-6.252,7.764" fill="#ffe5cc" stroke="#9e5f43" stroke-linecap="round" stroke-linejoin="round" stroke-width="0.758"/>
            <path id="Path_383" data-name="Path 383" d="M256.884,424.6c-1.031,3.9-3.566,3.75-3.646,1.768" fill="#ffe5cc" stroke="#9e5f43" stroke-linecap="round" stroke-linejoin="round" stroke-width="0.758"/>
            <path id="Path_384" data-name="Path 384" d="M254.57,424.415c-.663,1.751-2.441,3.629-4.084,1.4a1.039,1.039,0,0,1-.271-.539" fill="#ffe5cc" stroke="#9e5f43" stroke-linecap="round" stroke-linejoin="round" stroke-width="0.758"/>
            <path id="Path_385" data-name="Path 385" d="M252.579,421.546" fill="#ffe5cc" stroke="#9e5f43" stroke-linecap="round" stroke-linejoin="round" stroke-width="0.758"/>
            <path id="Path_386" data-name="Path 386" d="M252.11,422.973c-.525,1.771-1.739,2.894-3.054,2.027a3.064,3.064,0,0,1-1.483-1.862" fill="#ffe5cc" stroke="#9e5f43" stroke-linecap="round" stroke-linejoin="round" stroke-width="0.758"/>
            <path id="Path_387" data-name="Path 387" d="M250.276,421.06c-.671,2.376-2.593,3.038-3.795,1.012a3.293,3.293,0,0,1-.416-1.311" fill="#ffe5cc" stroke="#9e5f43" stroke-linecap="round" stroke-linejoin="round" stroke-width="0.758"/>
            <path id="Path_388" data-name="Path 388" d="M248.631,418.048c-.133,2.667-3.8,3.9-4.85-.18a4.385,4.385,0,0,1,1.94-5.191" fill="#ffe5cc" stroke="#9e5f43" stroke-linecap="round" stroke-linejoin="round" stroke-width="0.758"/>
          </g>
          <path id="Path_389" data-name="Path 389" d="M256.884,424.6c-1.271,4.808-4.829,3.46-3.252.11" fill="#ffe5cc" stroke="#9e5f43" stroke-linecap="round" stroke-linejoin="round" stroke-width="0.758"/>
          <path id="Path_390" data-name="Path 390" d="M254.57,424.415c-.663,1.751-2.441,3.629-4.084,1.4-.685-.931-.2-1.906.44-2.891" fill="#ffe5cc" stroke="#9e5f43" stroke-linecap="round" stroke-linejoin="round" stroke-width="0.758"/>
          <path id="Path_391" data-name="Path 391" d="M252.579,421.546" fill="#f7cbad" stroke="#9e5f43" stroke-linecap="round" stroke-linejoin="round" stroke-width="0.758"/>
          <path id="Path_392" data-name="Path 392" d="M252.11,422.973c-.525,1.771-1.739,2.894-3.054,2.027-2.382-1.567-1.462-3.186-.706-4.773" fill="#ffe5cc" stroke="#9e5f43" stroke-linecap="round" stroke-linejoin="round" stroke-width="0.758"/>
          <path id="Path_393" data-name="Path 393" d="M250.276,421.06c-.671,2.376-2.593,3.038-3.795,1.012-.923-1.54-.255-4.224.441-5.552" fill="#ffe5cc" stroke="#9e5f43" stroke-linecap="round" stroke-linejoin="round" stroke-width="0.758"/>
          <path id="Path_394" data-name="Path 394" d="M248.631,418.048c-.133,2.667-3.8,3.9-4.85-.18a4.385,4.385,0,0,1,1.94-5.191" fill="#ffe5cc" stroke="#9e5f43" stroke-linecap="round" stroke-linejoin="round" stroke-width="0.758"/>
          <path id="Path_395" data-name="Path 395" d="M245.487,412.851c-.47-4.1.82-7.626,6.249-7.763a40.478,40.478,0,0,1,4.132-3.922c-.007.018-.016.037-.023.055-2.708,6.375,1.616,10.733,7.624,11.229,8.315.637,19.226-.714,25.61-7.057,2.824-2.98,4.177-7.14,2.046-10.862-2.638-4.733-6.488-6.6-11.306-7.16a7.554,7.554,0,0,1,2.279-.419,15.343,15.343,0,0,1,15.062,12.564c.868,5.532-2.678,11.262-6.913,13.717-10.078,6.249-20.558,6.965-32,6.813l-.138-1.555c.259,3.268.952,9.231-2.583,8.712-1.07,1-2.232.5-2.287-.834-.8.645-1.8.739-2.752-.556a1.7,1.7,0,0,1-.271-.539,1.548,1.548,0,0,1-1.159-.274,3.014,3.014,0,0,1-1.483-1.862,2.519,2.519,0,0,1-1.092-1.066,3.5,3.5,0,0,1-.438-1.59c-.913-.122-1.821-.895-2.262-2.614A4.32,4.32,0,0,1,245.487,412.851Z" fill="#f7cbad" opacity="0.3" style="mix-blend-mode: multiply;isolation: isolate"/>
        </g>
      </g>
    </g>
  </g>
</svg>
